<svg width="408" height="636" viewBox="0 0 408 636" fill="none" xmlns="http://www.w3.org/2000/svg">
<path fill-rule="evenodd" clip-rule="evenodd" d="M88.4794 252.127C88.6927 252.127 88.9013 252.191 89.0788 252.312C89.2562 252.433 89.3945 252.604 89.4762 252.805C89.5578 253.005 89.5792 253.226 89.5376 253.439C89.496 253.652 89.3932 253.847 89.2423 254.001C89.0914 254.154 88.8992 254.259 88.6899 254.301C88.4806 254.344 88.2637 254.322 88.0666 254.239C87.8694 254.156 87.7009 254.015 87.5824 253.834C87.4639 253.654 87.4006 253.442 87.4006 253.225C87.4006 252.934 87.5143 252.654 87.7166 252.449C87.9189 252.243 88.1933 252.127 88.4794 252.127Z" fill="#68B7E7"/>
<path fill-rule="evenodd" clip-rule="evenodd" d="M204.527 273.431C204.741 273.431 204.949 273.495 205.127 273.616C205.304 273.736 205.443 273.908 205.524 274.108C205.606 274.309 205.627 274.529 205.586 274.742C205.544 274.955 205.441 275.151 205.29 275.305C205.14 275.458 204.947 275.563 204.738 275.605C204.529 275.647 204.312 275.626 204.115 275.542C203.918 275.459 203.749 275.319 203.631 275.138C203.512 274.958 203.449 274.745 203.449 274.528C203.449 274.384 203.477 274.241 203.531 274.108C203.585 273.975 203.665 273.854 203.765 273.752C203.865 273.65 203.984 273.569 204.115 273.514C204.246 273.459 204.386 273.431 204.527 273.431Z" fill="#68B7E7"/>
<path fill-rule="evenodd" clip-rule="evenodd" d="M262.168 116.114C262.381 116.114 262.59 116.179 262.767 116.299C262.945 116.42 263.083 116.591 263.164 116.792C263.246 116.993 263.267 117.213 263.226 117.426C263.184 117.639 263.081 117.835 262.931 117.988C262.78 118.142 262.587 118.246 262.378 118.288C262.169 118.331 261.952 118.309 261.755 118.226C261.558 118.143 261.389 118.002 261.271 117.822C261.152 117.641 261.089 117.429 261.089 117.212C261.089 117.068 261.117 116.925 261.171 116.792C261.225 116.659 261.305 116.538 261.405 116.436C261.505 116.334 261.624 116.253 261.755 116.198C261.886 116.143 262.026 116.114 262.168 116.114Z" fill="#68B7E7"/>
<path fill-rule="evenodd" clip-rule="evenodd" d="M394.381 85.0547C394.595 85.0547 394.803 85.1191 394.981 85.2397C395.158 85.3603 395.296 85.5317 395.378 85.7322C395.46 85.9328 395.481 86.1535 395.439 86.3664C395.398 86.5794 395.295 86.775 395.144 86.9285C394.993 87.082 394.801 87.1866 394.592 87.2289C394.383 87.2713 394.166 87.2495 393.968 87.1664C393.771 87.0833 393.603 86.9426 393.484 86.7621C393.366 86.5816 393.302 86.3693 393.302 86.1522C393.303 85.8611 393.416 85.582 393.619 85.3762C393.821 85.1704 394.095 85.0548 394.381 85.0547Z" fill="#68B7E7"/>
<path fill-rule="evenodd" clip-rule="evenodd" d="M217.996 185.218C218.21 185.218 218.418 185.282 218.595 185.403C218.773 185.524 218.911 185.695 218.993 185.896C219.074 186.096 219.096 186.317 219.054 186.53C219.013 186.743 218.91 186.938 218.759 187.092C218.608 187.245 218.416 187.35 218.207 187.392C217.997 187.434 217.78 187.413 217.583 187.33C217.386 187.246 217.218 187.106 217.099 186.925C216.981 186.745 216.917 186.533 216.917 186.316C216.917 186.171 216.945 186.029 217 185.895C217.054 185.762 217.133 185.641 217.233 185.539C217.334 185.438 217.452 185.357 217.583 185.302C217.714 185.246 217.855 185.218 217.996 185.218Z" fill="#406FBB"/>
<path fill-rule="evenodd" clip-rule="evenodd" d="M193.404 237.114C193.617 237.114 193.826 237.178 194.003 237.299C194.18 237.42 194.319 237.591 194.4 237.792C194.482 237.992 194.503 238.213 194.462 238.426C194.42 238.639 194.318 238.834 194.167 238.988C194.016 239.142 193.824 239.246 193.614 239.288C193.405 239.331 193.188 239.309 192.991 239.226C192.794 239.143 192.625 239.002 192.507 238.822C192.388 238.641 192.325 238.429 192.325 238.212C192.325 237.921 192.439 237.642 192.641 237.436C192.843 237.23 193.118 237.114 193.404 237.114Z" fill="#406FBB"/>
<path fill-rule="evenodd" clip-rule="evenodd" d="M144.116 301.575C144.329 301.575 144.537 301.64 144.715 301.76C144.892 301.881 145.031 302.052 145.112 302.253C145.194 302.453 145.215 302.674 145.174 302.887C145.132 303.1 145.029 303.295 144.879 303.449C144.728 303.602 144.536 303.707 144.326 303.749C144.117 303.792 143.9 303.77 143.703 303.687C143.506 303.604 143.337 303.463 143.219 303.283C143.1 303.102 143.037 302.89 143.037 302.673C143.037 302.529 143.065 302.386 143.119 302.253C143.173 302.12 143.253 301.999 143.353 301.897C143.453 301.795 143.572 301.714 143.703 301.659C143.834 301.604 143.974 301.575 144.116 301.575Z" fill="#365CBB"/>
<path d="M64.5106 369.049C64.5106 368.443 64.0277 367.951 63.432 367.951C62.8362 367.951 62.3533 368.443 62.3533 369.049C62.3533 369.655 62.8362 370.146 63.432 370.146C64.0277 370.146 64.5106 369.655 64.5106 369.049Z" fill="#365CBB"/>
<path fill-rule="evenodd" clip-rule="evenodd" d="M26.5353 238.212C26.8214 238.212 27.0958 238.328 27.2981 238.534C27.5004 238.739 27.6141 239.019 27.6142 239.31C27.6142 239.454 27.5863 239.597 27.532 239.73C27.4778 239.863 27.3983 239.984 27.2982 240.086C27.198 240.188 27.079 240.269 26.9481 240.324C26.8172 240.379 26.6769 240.407 26.5353 240.407C26.3936 240.407 26.2533 240.379 26.1224 240.324C25.9915 240.269 25.8726 240.188 25.7724 240.086C25.6723 239.984 25.5928 239.863 25.5386 239.73C25.4844 239.597 25.4565 239.454 25.4565 239.31C25.4565 239.166 25.4844 239.023 25.5386 238.89C25.5929 238.756 25.6723 238.635 25.7725 238.534C25.8727 238.432 25.9916 238.351 26.1224 238.296C26.2533 238.24 26.3936 238.212 26.5353 238.212Z" fill="#365CBB"/>
<path fill-rule="evenodd" clip-rule="evenodd" d="M216.921 168.451C217.134 168.451 217.343 168.515 217.52 168.636C217.697 168.756 217.836 168.928 217.917 169.128C217.999 169.329 218.02 169.549 217.979 169.762C217.937 169.975 217.834 170.171 217.683 170.324C217.532 170.478 217.34 170.582 217.131 170.624C216.922 170.667 216.705 170.645 216.508 170.562C216.311 170.479 216.142 170.338 216.024 170.158C215.905 169.977 215.842 169.765 215.842 169.548C215.842 169.404 215.87 169.261 215.924 169.128C215.978 168.995 216.058 168.874 216.158 168.772C216.258 168.67 216.377 168.589 216.508 168.534C216.639 168.479 216.779 168.45 216.921 168.451Z" fill="#365CBB"/>
<path d="M18.6215 160.464C18.6215 159.858 18.1385 159.366 17.5427 159.366C16.9469 159.366 16.4639 159.858 16.4639 160.464C16.4639 161.07 16.9469 161.562 17.5427 161.562C18.1385 161.562 18.6215 161.07 18.6215 160.464Z" fill="#365CBB"/>
<path fill-rule="evenodd" clip-rule="evenodd" d="M41.1481 120.039C41.4342 120.039 41.7086 120.154 41.9109 120.36C42.1133 120.566 42.227 120.845 42.227 121.137C42.227 121.428 42.1133 121.707 41.9109 121.913C41.7086 122.119 41.4342 122.234 41.1481 122.234C40.8619 122.234 40.5876 122.119 40.3853 121.913C40.183 121.707 40.0693 121.428 40.0693 121.137C40.0693 120.845 40.183 120.566 40.3853 120.36C40.5876 120.155 40.862 120.039 41.1481 120.039Z" fill="#406FBB"/>
<path fill-rule="evenodd" clip-rule="evenodd" d="M184.195 129.5C184.408 129.5 184.617 129.564 184.794 129.685C184.971 129.806 185.11 129.977 185.191 130.178C185.273 130.378 185.294 130.599 185.253 130.812C185.211 131.025 185.108 131.22 184.957 131.374C184.807 131.527 184.614 131.632 184.405 131.674C184.196 131.717 183.979 131.695 183.782 131.612C183.585 131.529 183.416 131.388 183.298 131.208C183.179 131.027 183.116 130.815 183.116 130.598C183.116 130.454 183.144 130.311 183.198 130.178C183.252 130.044 183.331 129.923 183.432 129.821C183.532 129.719 183.651 129.639 183.782 129.584C183.913 129.528 184.053 129.5 184.195 129.5Z" fill="#406FBB"/>
<path fill-rule="evenodd" clip-rule="evenodd" d="M132.475 409.814C132.689 409.814 132.897 409.879 133.075 409.999C133.252 410.12 133.39 410.291 133.472 410.492C133.554 410.692 133.575 410.913 133.533 411.126C133.492 411.339 133.389 411.535 133.238 411.688C133.087 411.842 132.895 411.946 132.686 411.989C132.476 412.031 132.26 412.009 132.062 411.926C131.865 411.843 131.697 411.702 131.578 411.522C131.46 411.341 131.396 411.129 131.396 410.912C131.396 410.621 131.51 410.342 131.712 410.136C131.915 409.93 132.189 409.814 132.475 409.814Z" fill="#406FBB"/>
<path fill-rule="evenodd" clip-rule="evenodd" d="M188.914 351.852C189.128 351.852 189.336 351.916 189.514 352.037C189.691 352.157 189.829 352.329 189.911 352.529C189.993 352.73 190.014 352.951 189.972 353.164C189.931 353.376 189.828 353.572 189.677 353.725C189.526 353.879 189.334 353.983 189.125 354.026C188.915 354.068 188.698 354.046 188.501 353.963C188.304 353.88 188.136 353.74 188.017 353.559C187.899 353.379 187.835 353.166 187.835 352.949C187.835 352.805 187.863 352.662 187.918 352.529C187.972 352.396 188.051 352.275 188.151 352.173C188.252 352.071 188.371 351.99 188.502 351.935C188.632 351.88 188.773 351.852 188.914 351.852Z" fill="#406FBB"/>
<path fill-rule="evenodd" clip-rule="evenodd" d="M55.8434 337.473C56.0567 337.473 56.2653 337.538 56.4428 337.658C56.6202 337.779 56.7585 337.95 56.8401 338.151C56.9218 338.352 56.9432 338.572 56.9016 338.785C56.86 338.998 56.7573 339.194 56.6064 339.347C56.4555 339.501 56.2633 339.605 56.0541 339.648C55.8448 339.69 55.6279 339.668 55.4307 339.585C55.2336 339.502 55.0651 339.362 54.9465 339.181C54.828 339.001 54.7647 338.788 54.7646 338.571C54.7646 338.28 54.8783 338.001 55.0806 337.795C55.2829 337.589 55.5572 337.473 55.8434 337.473Z" fill="#406FBB"/>
<path fill-rule="evenodd" clip-rule="evenodd" d="M330.853 124.184C331.066 124.184 331.275 124.248 331.452 124.369C331.63 124.489 331.768 124.661 331.85 124.861C331.931 125.062 331.953 125.282 331.911 125.495C331.869 125.708 331.767 125.904 331.616 126.057C331.465 126.211 331.273 126.315 331.063 126.358C330.854 126.4 330.637 126.378 330.44 126.295C330.243 126.212 330.075 126.072 329.956 125.891C329.837 125.711 329.774 125.498 329.774 125.281C329.774 124.99 329.888 124.711 330.09 124.505C330.292 124.299 330.567 124.184 330.853 124.184Z" fill="#406FBB"/>
<path fill-rule="evenodd" clip-rule="evenodd" d="M182.101 473.499C182.315 473.499 182.523 473.563 182.701 473.684C182.878 473.805 183.016 473.976 183.098 474.177C183.18 474.377 183.201 474.598 183.159 474.811C183.118 475.024 183.015 475.219 182.864 475.373C182.713 475.526 182.521 475.631 182.312 475.673C182.103 475.716 181.886 475.694 181.689 475.611C181.492 475.528 181.323 475.387 181.205 475.207C181.086 475.026 181.023 474.814 181.023 474.597C181.023 474.306 181.136 474.026 181.339 473.821C181.541 473.615 181.815 473.499 182.101 473.499Z" fill="#406FBB"/>
<path fill-rule="evenodd" clip-rule="evenodd" d="M28.6976 448.602C28.9837 448.602 29.2581 448.717 29.4604 448.923C29.6627 449.129 29.7763 449.408 29.7763 449.699C29.7763 449.99 29.6627 450.269 29.4604 450.475C29.2581 450.681 28.9837 450.797 28.6976 450.797C28.5559 450.797 28.4156 450.768 28.2848 450.713C28.1539 450.658 28.0349 450.577 27.9348 450.475C27.8346 450.373 27.7552 450.252 27.701 450.119C27.6468 449.986 27.6189 449.843 27.6189 449.699C27.6189 449.555 27.6468 449.412 27.701 449.279C27.7552 449.146 27.8346 449.025 27.9348 448.923C28.035 448.821 28.1539 448.74 28.2848 448.685C28.4157 448.63 28.5559 448.601 28.6976 448.602Z" fill="#406FBB"/>
<path fill-rule="evenodd" clip-rule="evenodd" d="M283.224 214.738C283.437 214.738 283.646 214.802 283.823 214.923C284.001 215.044 284.139 215.215 284.221 215.416C284.302 215.616 284.324 215.837 284.282 216.05C284.24 216.263 284.138 216.459 283.987 216.612C283.836 216.766 283.644 216.87 283.434 216.913C283.225 216.955 283.008 216.933 282.811 216.85C282.614 216.767 282.445 216.626 282.327 216.446C282.208 216.265 282.145 216.053 282.145 215.836C282.145 215.545 282.259 215.265 282.461 215.06C282.663 214.854 282.938 214.738 283.224 214.738Z" fill="#406FBB"/>
<path fill-rule="evenodd" clip-rule="evenodd" d="M104.774 300.476C104.988 300.476 105.196 300.541 105.374 300.661C105.551 300.782 105.689 300.953 105.771 301.154C105.853 301.355 105.874 301.575 105.832 301.788C105.791 302.001 105.688 302.197 105.537 302.35C105.386 302.504 105.194 302.608 104.985 302.651C104.776 302.693 104.559 302.671 104.361 302.588C104.164 302.505 103.996 302.364 103.877 302.184C103.759 302.003 103.696 301.791 103.696 301.574C103.696 301.283 103.809 301.004 104.012 300.798C104.214 300.592 104.488 300.476 104.774 300.476Z" fill="#406FBB"/>
<path fill-rule="evenodd" clip-rule="evenodd" d="M362.105 43.8719C362.318 43.8719 362.527 43.9363 362.704 44.0569C362.881 44.1776 363.02 44.349 363.101 44.5496C363.183 44.7502 363.204 44.9709 363.163 45.1838C363.121 45.3968 363.018 45.5924 362.868 45.7459C362.717 45.8994 362.524 46.0039 362.315 46.0463C362.106 46.0886 361.889 46.0669 361.692 45.9838C361.495 45.9007 361.326 45.76 361.208 45.5795C361.089 45.3989 361.026 45.1867 361.026 44.9695C361.026 44.6785 361.14 44.3994 361.342 44.1935C361.544 43.9877 361.819 43.872 362.105 43.8719Z" fill="#406FBB"/>
<path fill-rule="evenodd" clip-rule="evenodd" d="M109.103 107.299C109.316 107.299 109.525 107.363 109.702 107.484C109.879 107.604 110.018 107.776 110.099 107.976C110.181 108.177 110.202 108.398 110.161 108.611C110.119 108.823 110.016 109.019 109.865 109.173C109.715 109.326 109.522 109.431 109.313 109.473C109.104 109.515 108.887 109.494 108.69 109.411C108.493 109.328 108.324 109.187 108.206 109.006C108.087 108.826 108.024 108.614 108.024 108.397C108.024 108.252 108.052 108.11 108.106 107.976C108.16 107.843 108.24 107.722 108.34 107.62C108.44 107.518 108.559 107.437 108.69 107.382C108.821 107.327 108.961 107.299 109.103 107.299Z" fill="#68B7E7"/>
<path fill-rule="evenodd" clip-rule="evenodd" d="M118.066 53.4802C118.28 53.4802 118.488 53.5445 118.666 53.6652C118.843 53.7858 118.981 53.9573 119.063 54.1579C119.144 54.3585 119.166 54.5792 119.124 54.7921C119.083 55.0051 118.98 55.2007 118.829 55.3542C118.678 55.5077 118.486 55.6123 118.277 55.6547C118.067 55.697 117.85 55.6753 117.653 55.5922C117.456 55.5092 117.288 55.3684 117.169 55.1879C117.051 55.0074 116.987 54.7952 116.987 54.5781C116.987 54.4339 117.015 54.2911 117.069 54.1579C117.124 54.0247 117.203 53.9037 117.303 53.8017C117.403 53.6997 117.522 53.6189 117.653 53.5637C117.784 53.5085 117.925 53.4802 118.066 53.4802Z" fill="#406FBB"/>
<path fill-rule="evenodd" clip-rule="evenodd" d="M397.699 179.848C397.913 179.848 398.121 179.912 398.299 180.033C398.476 180.154 398.614 180.325 398.696 180.526C398.778 180.726 398.799 180.947 398.757 181.16C398.716 181.372 398.613 181.568 398.462 181.722C398.311 181.875 398.119 181.98 397.91 182.022C397.701 182.064 397.484 182.043 397.287 181.959C397.089 181.876 396.921 181.736 396.802 181.555C396.684 181.375 396.621 181.163 396.621 180.945C396.621 180.801 396.648 180.659 396.703 180.525C396.757 180.392 396.836 180.271 396.937 180.169C397.037 180.068 397.156 179.987 397.286 179.932C397.417 179.876 397.558 179.848 397.699 179.848Z" fill="#406FBB"/>
<path fill-rule="evenodd" clip-rule="evenodd" d="M150.333 385.432C150.547 385.432 150.755 385.496 150.933 385.617C151.11 385.737 151.248 385.909 151.33 386.109C151.412 386.31 151.433 386.53 151.392 386.743C151.35 386.956 151.247 387.152 151.096 387.305C150.945 387.459 150.753 387.564 150.544 387.606C150.335 387.648 150.118 387.626 149.921 387.543C149.723 387.46 149.555 387.32 149.436 387.139C149.318 386.959 149.255 386.746 149.255 386.529C149.255 386.238 149.368 385.959 149.571 385.753C149.773 385.547 150.047 385.432 150.333 385.432Z" fill="#90FFFF"/>
<path d="M164.432 284.044C164.432 283.438 163.949 282.947 163.354 282.947C162.758 282.947 162.275 283.438 162.275 284.044C162.275 284.65 162.758 285.142 163.354 285.142C163.949 285.142 164.432 284.65 164.432 284.044Z" fill="#90FFFF"/>
<path fill-rule="evenodd" clip-rule="evenodd" d="M27.6148 293.952C27.9009 293.952 28.1753 294.068 28.3776 294.274C28.5799 294.48 28.6936 294.759 28.6935 295.05C28.6935 295.341 28.5799 295.62 28.3776 295.826C28.1753 296.032 27.9009 296.147 27.6148 296.147C27.4732 296.147 27.3329 296.119 27.202 296.064C27.0711 296.009 26.9521 295.928 26.8519 295.826C26.7517 295.724 26.6723 295.603 26.618 295.47C26.5638 295.337 26.5359 295.194 26.5359 295.05C26.5359 294.759 26.6496 294.48 26.8519 294.274C27.0542 294.068 27.3287 293.952 27.6148 293.952Z" fill="#90FFFF"/>
<path fill-rule="evenodd" clip-rule="evenodd" d="M109.07 479.157C109.283 479.158 109.492 479.222 109.669 479.343C109.846 479.463 109.984 479.635 110.066 479.835C110.148 480.036 110.169 480.256 110.127 480.469C110.086 480.682 109.983 480.878 109.832 481.031C109.681 481.185 109.489 481.289 109.28 481.331C109.071 481.374 108.854 481.352 108.657 481.269C108.459 481.186 108.291 481.045 108.172 480.865C108.054 480.684 107.991 480.472 107.991 480.255C107.991 480.111 108.019 479.968 108.073 479.835C108.127 479.702 108.207 479.581 108.307 479.479C108.407 479.377 108.526 479.296 108.657 479.241C108.788 479.186 108.928 479.157 109.07 479.157Z" fill="#90FFFF"/>
<path fill-rule="evenodd" clip-rule="evenodd" d="M320.023 217.139C320.236 217.139 320.445 217.203 320.622 217.324C320.8 217.444 320.938 217.616 321.019 217.816C321.101 218.017 321.122 218.238 321.081 218.451C321.039 218.663 320.936 218.859 320.786 219.012C320.635 219.166 320.443 219.271 320.233 219.313C320.024 219.355 319.807 219.334 319.61 219.25C319.413 219.167 319.244 219.027 319.126 218.846C319.007 218.666 318.944 218.453 318.944 218.236C318.944 217.945 319.058 217.666 319.26 217.46C319.462 217.254 319.737 217.139 320.023 217.139Z" fill="#B7FFFF"/>
<path fill-rule="evenodd" clip-rule="evenodd" d="M66.795 262.557C67.0084 262.558 67.2169 262.622 67.3943 262.742C67.5717 262.863 67.71 263.035 67.7917 263.235C67.8733 263.436 67.8947 263.656 67.853 263.869C67.8114 264.082 67.7087 264.278 67.5578 264.431C67.4069 264.585 67.2147 264.689 67.0054 264.732C66.7962 264.774 66.5792 264.752 66.3821 264.669C66.185 264.586 66.0165 264.446 65.8979 264.265C65.7794 264.085 65.7161 263.872 65.7161 263.655C65.7161 263.511 65.744 263.368 65.7982 263.235C65.8524 263.102 65.9319 262.981 66.0321 262.879C66.1323 262.777 66.2512 262.696 66.3821 262.641C66.513 262.586 66.6533 262.557 66.795 262.557Z" fill="#90FFFF"/>
<path fill-rule="evenodd" clip-rule="evenodd" d="M214.357 54.5773C214.571 54.5773 214.779 54.6417 214.957 54.7623C215.134 54.8829 215.272 55.0543 215.354 55.2549C215.435 55.4554 215.457 55.6761 215.415 55.889C215.374 56.1019 215.271 56.2975 215.12 56.451C214.969 56.6045 214.777 56.709 214.568 56.7514C214.358 56.7937 214.142 56.772 213.944 56.6889C213.747 56.6058 213.579 56.4652 213.46 56.2847C213.342 56.1042 213.279 55.892 213.279 55.6749C213.279 55.3838 213.392 55.1047 213.595 54.8988C213.797 54.693 214.071 54.5774 214.357 54.5773Z" fill="#90FFFF"/>
<path fill-rule="evenodd" clip-rule="evenodd" d="M323.567 277.342C323.78 277.342 323.988 277.406 324.166 277.527C324.343 277.647 324.481 277.819 324.563 278.019C324.645 278.22 324.666 278.441 324.625 278.654C324.583 278.867 324.48 279.062 324.329 279.216C324.178 279.369 323.986 279.474 323.777 279.516C323.568 279.558 323.351 279.537 323.154 279.454C322.957 279.371 322.788 279.23 322.67 279.049C322.551 278.869 322.488 278.657 322.488 278.439C322.488 278.148 322.601 277.869 322.804 277.663C323.006 277.458 323.28 277.342 323.567 277.342Z" fill="#90FFFF"/>
<path fill-rule="evenodd" clip-rule="evenodd" d="M332.977 428.843C333.19 428.843 333.399 428.907 333.576 429.028C333.754 429.148 333.892 429.32 333.973 429.52C334.055 429.721 334.076 429.942 334.035 430.155C333.993 430.367 333.89 430.563 333.74 430.717C333.589 430.87 333.397 430.975 333.187 431.017C332.978 431.059 332.761 431.038 332.564 430.955C332.367 430.871 332.198 430.731 332.08 430.55C331.961 430.37 331.898 430.158 331.898 429.941C331.898 429.796 331.926 429.654 331.98 429.52C332.034 429.387 332.114 429.266 332.214 429.164C332.314 429.062 332.433 428.981 332.564 428.926C332.695 428.871 332.835 428.843 332.977 428.843Z" fill="#90FFFF"/>
<path fill-rule="evenodd" clip-rule="evenodd" d="M11.2843 55.675C11.4259 55.675 11.5662 55.7033 11.6971 55.7585C11.828 55.8136 11.947 55.8945 12.0472 55.9964C12.1473 56.0983 12.2268 56.2193 12.2811 56.3524C12.3353 56.4856 12.3632 56.6283 12.3632 56.7724C12.3632 56.9166 12.3353 57.0593 12.2811 57.1925C12.2269 57.3257 12.1474 57.4467 12.0472 57.5486C11.947 57.6506 11.8281 57.7315 11.6972 57.7866C11.5663 57.8418 11.426 57.8701 11.2843 57.8701C11.1426 57.8701 11.0023 57.8417 10.8714 57.7865C10.7405 57.7314 10.6216 57.6505 10.5214 57.5486C10.4213 57.4466 10.3418 57.3257 10.2876 57.1925C10.2334 57.0593 10.2055 56.9166 10.2056 56.7724C10.2056 56.4814 10.3192 56.2022 10.5215 55.9964C10.7238 55.7906 10.9982 55.675 11.2843 55.675Z" fill="#90FFFF"/>
<path fill-rule="evenodd" clip-rule="evenodd" d="M88.4432 130.107C88.6566 130.107 88.8652 130.172 89.0426 130.292C89.22 130.413 89.3583 130.584 89.44 130.785C89.5217 130.986 89.5431 131.206 89.5014 131.419C89.4598 131.632 89.3571 131.828 89.2062 131.981C89.0553 132.135 88.863 132.239 88.6538 132.282C88.4445 132.324 88.2276 132.302 88.0304 132.219C87.8333 132.136 87.6648 131.995 87.5463 131.815C87.4277 131.634 87.3645 131.422 87.3645 131.205C87.3646 130.914 87.4782 130.635 87.6805 130.429C87.8828 130.223 88.1571 130.107 88.4432 130.107Z" fill="#90FFFF"/>
<path fill-rule="evenodd" clip-rule="evenodd" d="M150.333 167.352C150.547 167.352 150.755 167.417 150.933 167.537C151.11 167.658 151.248 167.829 151.33 168.03C151.412 168.231 151.433 168.451 151.392 168.664C151.35 168.877 151.247 169.073 151.096 169.226C150.946 169.38 150.753 169.484 150.544 169.527C150.335 169.569 150.118 169.547 149.921 169.464C149.724 169.381 149.555 169.241 149.437 169.06C149.318 168.88 149.255 168.667 149.255 168.45C149.255 168.306 149.283 168.163 149.337 168.03C149.391 167.897 149.47 167.776 149.571 167.674C149.671 167.572 149.79 167.491 149.92 167.436C150.051 167.381 150.192 167.352 150.333 167.352Z" fill="#90FFFF"/>
<path fill-rule="evenodd" clip-rule="evenodd" d="M150.677 280.764C150.891 280.764 151.099 280.828 151.277 280.949C151.454 281.069 151.592 281.241 151.674 281.441C151.756 281.642 151.777 281.863 151.736 282.075C151.694 282.288 151.591 282.484 151.44 282.637C151.289 282.791 151.097 282.896 150.888 282.938C150.679 282.98 150.462 282.958 150.265 282.875C150.067 282.792 149.899 282.652 149.78 282.471C149.662 282.291 149.599 282.078 149.599 281.861C149.599 281.717 149.626 281.574 149.681 281.441C149.735 281.308 149.814 281.187 149.915 281.085C150.015 280.983 150.134 280.902 150.265 280.847C150.395 280.792 150.536 280.764 150.677 280.764Z" fill="#90FFFF"/>
<path fill-rule="evenodd" clip-rule="evenodd" d="M338.852 245.464C339.066 245.464 339.274 245.528 339.452 245.649C339.629 245.769 339.767 245.941 339.849 246.141C339.931 246.342 339.952 246.563 339.911 246.776C339.869 246.989 339.766 247.184 339.615 247.338C339.464 247.491 339.272 247.596 339.063 247.638C338.854 247.68 338.637 247.659 338.44 247.576C338.242 247.492 338.074 247.352 337.955 247.171C337.837 246.991 337.774 246.778 337.774 246.561C337.774 246.27 337.887 245.991 338.09 245.785C338.292 245.579 338.566 245.464 338.852 245.464Z" fill="#90FFFF"/>
<path fill-rule="evenodd" clip-rule="evenodd" d="M245.701 276.229C245.915 276.229 246.123 276.294 246.301 276.414C246.478 276.535 246.616 276.706 246.698 276.907C246.78 277.108 246.801 277.328 246.76 277.541C246.718 277.754 246.615 277.95 246.464 278.103C246.313 278.257 246.121 278.361 245.912 278.404C245.703 278.446 245.486 278.424 245.289 278.341C245.092 278.258 244.923 278.118 244.804 277.937C244.686 277.757 244.623 277.544 244.623 277.327C244.623 277.036 244.736 276.757 244.939 276.551C245.141 276.345 245.415 276.23 245.701 276.229Z" fill="#68B7E7"/>
<path fill-rule="evenodd" clip-rule="evenodd" d="M201.537 345.333C201.75 345.333 201.959 345.397 202.136 345.518C202.314 345.638 202.452 345.81 202.534 346.01C202.615 346.211 202.637 346.432 202.595 346.645C202.553 346.858 202.451 347.053 202.3 347.207C202.149 347.36 201.957 347.465 201.747 347.507C201.538 347.55 201.321 347.528 201.124 347.445C200.927 347.362 200.758 347.221 200.64 347.04C200.521 346.86 200.458 346.648 200.458 346.43C200.458 346.139 200.572 345.86 200.774 345.654C200.976 345.449 201.251 345.333 201.537 345.333Z" fill="#406FBB"/>
<path fill-rule="evenodd" clip-rule="evenodd" d="M176.944 397.229C177.157 397.229 177.366 397.294 177.543 397.415C177.721 397.535 177.859 397.707 177.94 397.907C178.022 398.108 178.043 398.328 178.002 398.541C177.96 398.754 177.857 398.95 177.706 399.103C177.556 399.257 177.363 399.361 177.154 399.404C176.945 399.446 176.728 399.424 176.531 399.341C176.334 399.258 176.165 399.117 176.047 398.937C175.928 398.756 175.865 398.544 175.865 398.327C175.865 398.183 175.893 398.04 175.947 397.907C176.001 397.774 176.081 397.653 176.181 397.551C176.281 397.449 176.4 397.368 176.531 397.313C176.662 397.258 176.802 397.229 176.944 397.229Z" fill="#406FBB"/>
<path fill-rule="evenodd" clip-rule="evenodd" d="M127.652 461.688C127.865 461.688 128.074 461.753 128.251 461.873C128.429 461.994 128.567 462.165 128.649 462.366C128.73 462.566 128.752 462.787 128.71 463C128.668 463.213 128.566 463.409 128.415 463.562C128.264 463.716 128.072 463.82 127.863 463.863C127.653 463.905 127.436 463.883 127.239 463.8C127.042 463.717 126.873 463.577 126.755 463.396C126.636 463.216 126.573 463.003 126.573 462.786C126.573 462.495 126.687 462.216 126.889 462.01C127.091 461.804 127.366 461.688 127.652 461.688Z" fill="#365CBB"/>
<path fill-rule="evenodd" clip-rule="evenodd" d="M46.9681 528.065C47.1098 528.065 47.2501 528.093 47.381 528.148C47.5119 528.203 47.6308 528.284 47.731 528.386C47.8312 528.488 47.9107 528.609 47.9649 528.742C48.0191 528.875 48.047 529.018 48.0471 529.162C48.047 529.306 48.0191 529.449 47.9649 529.582C47.9107 529.715 47.8312 529.836 47.731 529.938C47.6308 530.04 47.5119 530.121 47.381 530.176C47.2501 530.231 47.1098 530.26 46.9681 530.26C46.682 530.26 46.4076 530.144 46.2054 529.938C46.0031 529.732 45.8894 529.453 45.8894 529.162C45.8894 528.871 46.0031 528.592 46.2054 528.386C46.4076 528.18 46.682 528.065 46.9681 528.065Z" fill="#365CBB"/>
<path fill-rule="evenodd" clip-rule="evenodd" d="M10.076 398.327C10.3621 398.327 10.6365 398.443 10.8388 398.649C11.0411 398.855 11.1547 399.134 11.1547 399.425C11.1547 399.716 11.0411 399.995 10.8388 400.201C10.6365 400.407 10.3621 400.522 10.076 400.522C9.78987 400.522 9.51546 400.407 9.31313 400.201C9.1108 399.995 8.99711 399.716 8.99707 399.425C8.99712 399.134 9.11082 398.854 9.31315 398.649C9.51549 398.443 9.78989 398.327 10.076 398.327Z" fill="#365CBB"/>
<path fill-rule="evenodd" clip-rule="evenodd" d="M290.279 509.584C290.492 509.584 290.701 509.648 290.878 509.769C291.055 509.889 291.194 510.061 291.275 510.261C291.357 510.462 291.378 510.683 291.337 510.896C291.295 511.109 291.193 511.304 291.042 511.458C290.891 511.611 290.699 511.716 290.489 511.758C290.28 511.801 290.063 511.779 289.866 511.696C289.669 511.613 289.5 511.472 289.382 511.292C289.263 511.111 289.2 510.899 289.2 510.682C289.2 510.391 289.314 510.111 289.516 509.905C289.718 509.7 289.993 509.584 290.279 509.584Z" fill="#365CBB"/>
<path fill-rule="evenodd" clip-rule="evenodd" d="M200.458 328.565C200.671 328.565 200.88 328.63 201.057 328.75C201.234 328.871 201.373 329.042 201.454 329.243C201.536 329.444 201.557 329.664 201.516 329.877C201.474 330.09 201.371 330.286 201.22 330.439C201.069 330.593 200.877 330.697 200.668 330.74C200.459 330.782 200.242 330.76 200.045 330.677C199.848 330.594 199.679 330.453 199.561 330.273C199.442 330.092 199.379 329.88 199.379 329.663C199.379 329.519 199.407 329.376 199.461 329.243C199.515 329.11 199.594 328.989 199.695 328.887C199.795 328.785 199.914 328.704 200.045 328.649C200.176 328.594 200.316 328.565 200.458 328.565Z" fill="#365CBB"/>
<path fill-rule="evenodd" clip-rule="evenodd" d="M1.07895 319.48C1.22061 319.48 1.36088 319.509 1.49175 319.564C1.62263 319.619 1.74154 319.7 1.84171 319.802C1.94188 319.904 2.02134 320.025 2.07555 320.158C2.12976 320.291 2.15766 320.434 2.15766 320.578C2.15767 320.869 2.04404 321.148 1.84174 321.354C1.63945 321.56 1.36507 321.676 1.07895 321.676C0.792807 321.676 0.518395 321.56 0.316062 321.354C0.11373 321.148 4.29913e-05 320.869 0 320.578C4.91419e-05 320.287 0.113747 320.008 0.316085 319.802C0.518422 319.596 0.792831 319.48 1.07895 319.48Z" fill="#365CBB"/>
<path fill-rule="evenodd" clip-rule="evenodd" d="M116.015 569.93C116.229 569.93 116.437 569.994 116.615 570.114C116.792 570.235 116.93 570.407 117.012 570.607C117.094 570.808 117.115 571.028 117.073 571.241C117.032 571.454 116.929 571.65 116.778 571.803C116.627 571.957 116.435 572.062 116.226 572.104C116.017 572.146 115.8 572.125 115.602 572.041C115.405 571.958 115.237 571.818 115.118 571.637C115 571.457 114.937 571.244 114.937 571.027C114.937 570.736 115.05 570.457 115.253 570.251C115.455 570.045 115.729 569.93 116.015 569.93Z" fill="#406FBB"/>
<path fill-rule="evenodd" clip-rule="evenodd" d="M172.454 511.966C172.668 511.966 172.876 512.03 173.054 512.151C173.231 512.272 173.369 512.443 173.451 512.644C173.532 512.844 173.554 513.065 173.512 513.278C173.471 513.491 173.368 513.686 173.217 513.84C173.066 513.993 172.874 514.098 172.665 514.14C172.455 514.182 172.239 514.161 172.041 514.078C171.844 513.995 171.676 513.854 171.557 513.673C171.439 513.493 171.375 513.281 171.375 513.064C171.376 512.773 171.489 512.493 171.692 512.288C171.894 512.082 172.168 511.966 172.454 511.966Z" fill="#406FBB"/>
<path fill-rule="evenodd" clip-rule="evenodd" d="M39.3834 497.589C39.6695 497.589 39.9439 497.705 40.1462 497.91C40.3485 498.116 40.4621 498.395 40.4621 498.686C40.4621 498.978 40.3485 499.257 40.1462 499.463C39.9439 499.668 39.6695 499.784 39.3834 499.784C39.0972 499.784 38.8228 499.669 38.6205 499.463C38.4181 499.257 38.3044 498.978 38.3044 498.686C38.3044 498.542 38.3324 498.4 38.3866 498.266C38.4408 498.133 38.5203 498.012 38.6205 497.91C38.7207 497.808 38.8396 497.728 38.9705 497.672C39.1014 497.617 39.2417 497.589 39.3834 497.589Z" fill="#406FBB"/>
<path fill-rule="evenodd" clip-rule="evenodd" d="M323.473 503.631C323.687 503.631 323.895 503.695 324.073 503.816C324.25 503.936 324.388 504.108 324.47 504.308C324.552 504.509 324.573 504.73 324.531 504.943C324.49 505.156 324.387 505.351 324.236 505.505C324.085 505.658 323.893 505.763 323.684 505.805C323.475 505.847 323.258 505.826 323.061 505.743C322.863 505.66 322.695 505.519 322.576 505.338C322.458 505.158 322.395 504.946 322.395 504.729C322.395 504.437 322.508 504.158 322.711 503.952C322.913 503.746 323.187 503.631 323.473 503.631Z" fill="#406FBB"/>
<path fill-rule="evenodd" clip-rule="evenodd" d="M165.641 633.613C165.855 633.613 166.063 633.678 166.241 633.798C166.418 633.919 166.556 634.09 166.638 634.291C166.72 634.491 166.741 634.712 166.699 634.925C166.658 635.138 166.555 635.333 166.404 635.487C166.253 635.641 166.061 635.745 165.852 635.787C165.643 635.83 165.426 635.808 165.229 635.725C165.031 635.642 164.863 635.501 164.744 635.321C164.626 635.14 164.563 634.928 164.563 634.711C164.562 634.567 164.59 634.424 164.645 634.291C164.699 634.158 164.778 634.037 164.878 633.935C164.979 633.833 165.097 633.752 165.228 633.697C165.359 633.642 165.5 633.613 165.641 633.613Z" fill="#406FBB"/>
<path fill-rule="evenodd" clip-rule="evenodd" d="M12.2313 608.716C12.5174 608.716 12.7918 608.831 12.9942 609.037C13.1965 609.243 13.3102 609.522 13.3103 609.813C13.3103 610.104 13.1966 610.384 12.9942 610.59C12.7919 610.795 12.5175 610.911 12.2313 610.911C12.0896 610.911 11.9493 610.883 11.8185 610.828C11.6876 610.772 11.5686 610.691 11.4685 610.59C11.3683 610.488 11.2888 610.367 11.2346 610.233C11.1804 610.1 11.1526 609.957 11.1526 609.813C11.1526 609.522 11.2662 609.243 11.4685 609.037C11.6708 608.831 11.9452 608.716 12.2313 608.716Z" fill="#406FBB"/>
<path fill-rule="evenodd" clip-rule="evenodd" d="M88.3104 460.592C88.5238 460.592 88.7324 460.656 88.9098 460.777C89.0872 460.897 89.2255 461.069 89.3072 461.269C89.3889 461.47 89.4103 461.691 89.3686 461.904C89.327 462.116 89.2242 462.312 89.0734 462.466C88.9225 462.619 88.7302 462.724 88.5209 462.766C88.3117 462.808 88.0947 462.787 87.8976 462.704C87.7005 462.62 87.532 462.48 87.4134 462.299C87.2949 462.119 87.2317 461.906 87.2317 461.689C87.2317 461.398 87.3453 461.119 87.5476 460.913C87.7499 460.707 88.0243 460.592 88.3104 460.592Z" fill="#406FBB"/>
<path fill-rule="evenodd" clip-rule="evenodd" d="M133.866 545.545C134.079 545.545 134.288 545.609 134.465 545.73C134.642 545.85 134.781 546.022 134.862 546.222C134.944 546.423 134.965 546.644 134.924 546.857C134.882 547.07 134.779 547.265 134.628 547.419C134.478 547.572 134.285 547.677 134.076 547.719C133.867 547.762 133.65 547.74 133.453 547.657C133.256 547.574 133.087 547.433 132.969 547.252C132.85 547.072 132.787 546.86 132.787 546.642C132.787 546.351 132.901 546.072 133.103 545.866C133.305 545.66 133.579 545.545 133.866 545.545Z" fill="#90FFFF"/>
<path fill-rule="evenodd" clip-rule="evenodd" d="M11.1561 454.067C11.4422 454.067 11.7166 454.183 11.9189 454.389C12.1212 454.595 12.2348 454.874 12.2348 455.165C12.2348 455.456 12.1212 455.735 11.9189 455.941C11.7166 456.147 11.4422 456.263 11.1561 456.263C10.87 456.263 10.5956 456.147 10.3933 455.941C10.191 455.735 10.0774 455.456 10.0774 455.165C10.0774 454.874 10.191 454.595 10.3933 454.389C10.5956 454.183 10.87 454.067 11.1561 454.067Z" fill="#90FFFF"/>
<path fill-rule="evenodd" clip-rule="evenodd" d="M303.564 377.254C303.777 377.254 303.986 377.318 304.163 377.439C304.341 377.559 304.479 377.731 304.561 377.931C304.643 378.132 304.664 378.353 304.622 378.566C304.581 378.778 304.478 378.974 304.327 379.128C304.176 379.281 303.984 379.386 303.775 379.428C303.565 379.47 303.349 379.449 303.151 379.366C302.954 379.283 302.786 379.142 302.667 378.961C302.549 378.781 302.485 378.569 302.485 378.352C302.485 378.207 302.513 378.065 302.567 377.932C302.622 377.798 302.701 377.677 302.801 377.575C302.901 377.473 303.02 377.392 303.151 377.337C303.282 377.282 303.422 377.254 303.564 377.254Z" fill="#B7FFFF"/>
<path fill-rule="evenodd" clip-rule="evenodd" d="M307.104 437.457C307.317 437.457 307.526 437.521 307.703 437.642C307.88 437.762 308.019 437.934 308.1 438.134C308.182 438.335 308.203 438.556 308.162 438.769C308.12 438.982 308.018 439.177 307.867 439.331C307.716 439.484 307.524 439.589 307.314 439.631C307.105 439.674 306.888 439.652 306.691 439.569C306.494 439.486 306.325 439.345 306.207 439.165C306.088 438.984 306.025 438.772 306.025 438.555C306.025 438.264 306.139 437.984 306.341 437.779C306.543 437.573 306.817 437.457 307.104 437.457Z" fill="#90FFFF"/>
<path fill-rule="evenodd" clip-rule="evenodd" d="M316.513 588.958C316.726 588.958 316.935 589.022 317.112 589.143C317.29 589.263 317.428 589.435 317.51 589.635C317.591 589.836 317.613 590.057 317.571 590.27C317.529 590.483 317.427 590.678 317.276 590.832C317.125 590.985 316.933 591.09 316.723 591.132C316.514 591.175 316.297 591.153 316.1 591.07C315.903 590.987 315.735 590.846 315.616 590.666C315.497 590.485 315.434 590.273 315.434 590.056C315.434 589.912 315.462 589.769 315.516 589.636C315.57 589.502 315.65 589.381 315.75 589.279C315.85 589.177 315.969 589.097 316.1 589.041C316.231 588.986 316.371 588.958 316.513 588.958Z" fill="#90FFFF"/>
<path fill-rule="evenodd" clip-rule="evenodd" d="M71.9837 290.222C72.1971 290.222 72.4057 290.286 72.5831 290.407C72.7606 290.527 72.8989 290.699 72.9805 290.899C73.0622 291.1 73.0836 291.32 73.042 291.533C73.0003 291.746 72.8976 291.942 72.7467 292.095C72.5958 292.249 72.4036 292.354 72.1943 292.396C71.985 292.438 71.7681 292.417 71.571 292.333C71.3738 292.25 71.2053 292.11 71.0868 291.929C70.9683 291.749 70.905 291.536 70.905 291.319C70.905 291.175 70.9329 291.032 70.9871 290.899C71.0413 290.766 71.1208 290.645 71.2209 290.543C71.3211 290.441 71.44 290.36 71.5709 290.305C71.7018 290.25 71.8421 290.222 71.9837 290.222Z" fill="#90FFFF"/>
<path fill-rule="evenodd" clip-rule="evenodd" d="M133.866 327.468C134.079 327.468 134.288 327.532 134.465 327.653C134.642 327.773 134.781 327.945 134.862 328.145C134.944 328.346 134.965 328.566 134.924 328.779C134.882 328.992 134.779 329.188 134.628 329.342C134.478 329.495 134.285 329.6 134.076 329.642C133.867 329.684 133.65 329.663 133.453 329.579C133.256 329.496 133.087 329.356 132.969 329.175C132.85 328.995 132.787 328.782 132.787 328.565C132.787 328.274 132.901 327.995 133.103 327.789C133.305 327.583 133.579 327.468 133.866 327.468Z" fill="#90FFFF"/>
<path fill-rule="evenodd" clip-rule="evenodd" d="M141.819 437.332C142.032 437.332 142.241 437.396 142.418 437.517C142.596 437.637 142.734 437.809 142.816 438.009C142.897 438.21 142.919 438.431 142.877 438.644C142.836 438.857 142.733 439.052 142.582 439.206C142.431 439.359 142.239 439.464 142.03 439.506C141.82 439.549 141.603 439.527 141.406 439.444C141.209 439.361 141.041 439.22 140.922 439.04C140.804 438.859 140.74 438.647 140.74 438.43C140.74 438.286 140.768 438.143 140.822 438.01C140.876 437.876 140.956 437.755 141.056 437.654C141.156 437.552 141.275 437.471 141.406 437.416C141.537 437.36 141.677 437.332 141.819 437.332Z" fill="#90FFFF"/>
<path fill-rule="evenodd" clip-rule="evenodd" d="M322.394 405.579C322.607 405.579 322.816 405.643 322.993 405.764C323.171 405.885 323.309 406.056 323.391 406.257C323.472 406.457 323.494 406.678 323.452 406.891C323.411 407.104 323.308 407.299 323.157 407.453C323.006 407.606 322.814 407.711 322.605 407.753C322.395 407.796 322.178 407.774 321.981 407.691C321.784 407.608 321.616 407.467 321.497 407.287C321.379 407.106 321.315 406.894 321.315 406.677C321.315 406.533 321.343 406.39 321.397 406.257C321.451 406.124 321.531 406.003 321.631 405.901C321.731 405.799 321.85 405.718 321.981 405.663C322.112 405.608 322.252 405.579 322.394 405.579Z" fill="#90FFFF"/>
<path fill-rule="evenodd" clip-rule="evenodd" d="M317.227 130.347C317.44 130.347 317.649 130.411 317.826 130.532C318.004 130.652 318.142 130.824 318.224 131.024C318.305 131.225 318.327 131.446 318.285 131.658C318.244 131.871 318.141 132.067 317.99 132.221C317.839 132.374 317.647 132.479 317.438 132.521C317.228 132.563 317.011 132.542 316.814 132.458C316.617 132.375 316.448 132.235 316.33 132.054C316.211 131.874 316.148 131.661 316.148 131.444C316.148 131.153 316.262 130.874 316.464 130.668C316.666 130.462 316.941 130.347 317.227 130.347Z" fill="#90FFFF"/>
<path fill-rule="evenodd" clip-rule="evenodd" d="M133.404 67.5088C133.617 67.5088 133.826 67.5732 134.003 67.6938C134.18 67.8144 134.319 67.9858 134.4 68.1864C134.482 68.3869 134.503 68.6076 134.462 68.8206C134.42 69.0335 134.317 69.2291 134.166 69.3826C134.016 69.5361 133.823 69.6406 133.614 69.683C133.405 69.7254 133.188 69.7036 132.991 69.6206C132.794 69.5375 132.625 69.3968 132.507 69.2163C132.388 69.0357 132.325 68.8235 132.325 68.6064C132.325 68.3153 132.439 68.0362 132.641 67.8303C132.843 67.6245 133.118 67.5088 133.404 67.5088Z" fill="#406FBB"/>
<path fill-rule="evenodd" clip-rule="evenodd" d="M24.0216 548.071C24.1632 548.071 24.3035 548.1 24.4344 548.155C24.5653 548.21 24.6842 548.291 24.7844 548.393C24.8846 548.495 24.964 548.616 25.0182 548.749C25.0724 548.882 25.1003 549.025 25.1003 549.169C25.1003 549.46 24.9866 549.739 24.7843 549.945C24.582 550.151 24.3077 550.267 24.0216 550.267C23.7355 550.267 23.4611 550.151 23.2588 549.945C23.0565 549.739 22.9429 549.46 22.9429 549.169C22.9428 549.025 22.9707 548.882 23.0249 548.749C23.0791 548.616 23.1586 548.495 23.2587 548.393C23.3589 548.291 23.4778 548.21 23.6087 548.155C23.7396 548.1 23.8799 548.071 24.0216 548.071Z" fill="#406FBB"/>
<path fill-rule="evenodd" clip-rule="evenodd" d="M211.24 144.88C211.454 144.88 211.662 144.944 211.84 145.065C212.017 145.185 212.155 145.357 212.237 145.557C212.319 145.758 212.34 145.979 212.299 146.191C212.257 146.404 212.154 146.6 212.003 146.754C211.852 146.907 211.66 147.012 211.451 147.054C211.242 147.096 211.025 147.075 210.828 146.992C210.631 146.909 210.462 146.768 210.343 146.587C210.225 146.407 210.162 146.195 210.162 145.978C210.162 145.686 210.275 145.407 210.478 145.201C210.68 144.995 210.954 144.88 211.24 144.88Z" fill="#406FBB"/>
<path fill-rule="evenodd" clip-rule="evenodd" d="M267.016 13.1465C267.23 13.1465 267.438 13.2108 267.616 13.3314C267.793 13.452 267.931 13.6234 268.013 13.824C268.095 14.0245 268.116 14.2452 268.074 14.4582C268.033 14.6711 267.93 14.8667 267.779 15.0202C267.628 15.1737 267.436 15.2783 267.227 15.3207C267.018 15.3631 266.801 15.3413 266.604 15.2583C266.406 15.1752 266.238 15.0346 266.119 14.8541C266.001 14.6736 265.938 14.4614 265.938 14.2443C265.937 14.1001 265.965 13.9574 266.02 13.8242C266.074 13.691 266.153 13.57 266.253 13.468C266.354 13.3661 266.472 13.2852 266.603 13.2301C266.734 13.1749 266.875 13.1465 267.016 13.1465Z" fill="#406FBB"/>
</svg>
