<svg width="82" height="129" viewBox="0 0 82 129" fill="none" xmlns="http://www.w3.org/2000/svg">
<path d="M40.9347 128.364V96.4098L1.45288 73.2939L40.9347 128.364Z" fill="white"/>
<path fill-rule="evenodd" clip-rule="evenodd" d="M1.36971 73.2179C1.40552 73.1786 1.46391 73.1697 1.50978 73.1966L40.9916 96.3124C41.0261 96.3326 41.0473 96.3696 41.0473 96.4096V128.364C41.0473 128.413 41.0157 128.456 40.9691 128.471C40.9226 128.486 40.8717 128.469 40.8432 128.429L1.36142 73.3593C1.33045 73.3161 1.33391 73.2572 1.36971 73.2179ZM1.85278 73.6583L40.8221 128.014V96.4741L1.85278 73.6583Z" fill="#627EEA"/>
<path d="M41.0654 128.364V96.4098L80.547 73.2939L41.0654 128.364Z" fill="#C0CCF7"/>
<path fill-rule="evenodd" clip-rule="evenodd" d="M80.6302 73.2179C80.666 73.2572 80.6694 73.3161 80.6385 73.3593L41.1569 128.429C41.1284 128.469 41.0776 128.486 41.031 128.471C40.9844 128.456 40.9529 128.413 40.9529 128.364V96.4096C40.9529 96.3696 40.9741 96.3326 41.0086 96.3124L80.4901 73.1966C80.536 73.1697 80.5944 73.1786 80.6302 73.2179ZM41.178 96.4741V128.014L80.1471 73.6583L41.178 96.4741Z" fill="#627EEA"/>
<path d="M40.9346 88.4668V47.6846L1 65.5881L40.9346 88.4668Z" fill="#C0CCF7"/>
<path fill-rule="evenodd" clip-rule="evenodd" d="M40.9958 47.5903C41.0279 47.6111 41.0472 47.6467 41.0472 47.6848V88.4671C41.0472 88.5072 41.0258 88.5443 40.9911 88.5645C40.9564 88.5846 40.9135 88.5847 40.8787 88.5647L0.944062 65.686C0.907319 65.6649 0.885498 65.6251 0.887589 65.5828C0.88968 65.5405 0.91533 65.5029 0.95397 65.4856L40.8886 47.5821C40.9234 47.5665 40.9638 47.5696 40.9958 47.5903ZM1.24786 65.6006L40.8221 88.2728V47.8587L1.24786 65.6006Z" fill="#627EEA"/>
<path d="M41.0652 88.4668V47.6846L81 65.5881L41.0652 88.4668Z" fill="#8198EE"/>
<path fill-rule="evenodd" clip-rule="evenodd" d="M41.004 47.5903C41.0361 47.5696 41.0764 47.5665 41.1113 47.5821L81.046 65.4856C81.0847 65.5029 81.1103 65.5405 81.1124 65.5828C81.1145 65.6251 81.0927 65.6649 81.0559 65.686L41.1212 88.5647C41.0863 88.5847 41.0435 88.5846 41.0088 88.5645C40.974 88.5443 40.9526 88.5072 40.9526 88.4671V47.6848C40.9526 47.6467 40.972 47.6111 41.004 47.5903ZM41.1778 47.8587V88.2728L80.7521 65.6006L41.1778 47.8587Z" fill="#627EEA"/>
<path d="M1.00024 65.5885L40.9348 1V47.685L1.00024 65.5885Z" fill="white"/>
<path fill-rule="evenodd" clip-rule="evenodd" d="M40.9653 0.891504C41.0137 0.905259 41.0471 0.949467 41.0471 0.999786V47.6848C41.0471 47.7291 41.0211 47.7693 40.9806 47.7875L1.04607 65.691C1.00095 65.7112 0.947912 65.6996 0.915335 65.6624C0.882758 65.6252 0.878271 65.5711 0.904275 65.5291L40.8388 0.940587C40.8652 0.897788 40.9169 0.877749 40.9653 0.891504ZM1.28865 65.3355L40.822 47.6119V1.39591L1.28865 65.3355Z" fill="#627EEA"/>
<path d="M81 65.5885L41.0654 1V47.685L81 65.5885Z" fill="#C0CCF7"/>
<path fill-rule="evenodd" clip-rule="evenodd" d="M41.0347 0.891504C41.0831 0.877749 41.1347 0.897788 41.1612 0.940587L81.0957 65.5291C81.1218 65.5711 81.1173 65.6252 81.0847 65.6624C81.0521 65.6996 80.9991 65.7112 80.954 65.691L41.0194 47.7875C40.9789 47.7693 40.9529 47.7291 40.9529 47.6848V0.999786C40.9529 0.949467 40.9863 0.905259 41.0347 0.891504ZM41.178 1.39591V47.6119L80.7114 65.3355L41.178 1.39591Z" fill="#627EEA"/>
</svg>
