<svg width="166" height="27" viewBox="0 0 166 27" fill="none" xmlns="http://www.w3.org/2000/svg">
<path d="M50.5639 7.364V20H47.4859V12.422L44.6599 20H42.1759L39.3319 12.404V20H36.2539V7.364H39.8899L43.4359 16.112L46.9459 7.364H50.5639ZM62.5759 9.956L56.2759 24.77H52.9639L55.2679 19.658L51.1819 9.956H54.6199L56.9419 16.238L59.2459 9.956H62.5759ZM62.6155 14.978C62.6155 13.934 62.8255 13.022 63.2455 12.242C63.6775 11.462 64.2715 10.862 65.0275 10.442C65.7955 10.022 66.6715 9.812 67.6555 9.812C68.9155 9.812 69.9655 10.142 70.8055 10.802C71.6575 11.462 72.2155 12.392 72.4795 13.592H69.2035C68.9275 12.824 68.3935 12.44 67.6015 12.44C67.0375 12.44 66.5875 12.662 66.2515 13.106C65.9155 13.538 65.7475 14.162 65.7475 14.978C65.7475 15.794 65.9155 16.424 66.2515 16.868C66.5875 17.3 67.0375 17.516 67.6015 17.516C68.3935 17.516 68.9275 17.132 69.2035 16.364H72.4795C72.2155 17.54 71.6575 18.464 70.8055 19.136C69.9535 19.808 68.9035 20.144 67.6555 20.144C66.6715 20.144 65.7955 19.934 65.0275 19.514C64.2715 19.094 63.6775 18.494 63.2455 17.714C62.8255 16.934 62.6155 16.022 62.6155 14.978ZM78.2365 20.144C77.2525 20.144 76.3645 19.934 75.5725 19.514C74.7925 19.094 74.1745 18.494 73.7185 17.714C73.2745 16.934 73.0525 16.022 73.0525 14.978C73.0525 13.946 73.2805 13.04 73.7365 12.26C74.1925 11.468 74.8165 10.862 75.6085 10.442C76.4005 10.022 77.2885 9.812 78.2725 9.812C79.2565 9.812 80.1445 10.022 80.9366 10.442C81.7285 10.862 82.3526 11.468 82.8086 12.26C83.2646 13.04 83.4926 13.946 83.4926 14.978C83.4926 16.01 83.2586 16.922 82.7905 17.714C82.3345 18.494 81.7045 19.094 80.9005 19.514C80.1086 19.934 79.2206 20.144 78.2365 20.144ZM78.2365 17.48C78.8245 17.48 79.3225 17.264 79.7305 16.832C80.1505 16.4 80.3605 15.782 80.3605 14.978C80.3605 14.174 80.1565 13.556 79.7485 13.124C79.3525 12.692 78.8605 12.476 78.2725 12.476C77.6725 12.476 77.1745 12.692 76.7785 13.124C76.3825 13.544 76.1845 14.162 76.1845 14.978C76.1845 15.782 76.3765 16.4 76.7605 16.832C77.1565 17.264 77.6485 17.48 78.2365 17.48ZM90.2621 17.39V20H88.6961C87.5801 20 86.7101 19.73 86.0861 19.19C85.4621 18.638 85.1501 17.744 85.1501 16.508V12.512H83.9261V9.956H85.1501V7.508H88.2281V9.956H90.2441V12.512H88.2281V16.544C88.2281 16.844 88.3001 17.06 88.4441 17.192C88.5881 17.324 88.8281 17.39 89.1641 17.39H90.2621ZM90.9032 14.96C90.9032 13.928 91.0952 13.022 91.4792 12.242C91.8752 11.462 92.4092 10.862 93.0812 10.442C93.7532 10.022 94.5032 9.812 95.3312 9.812C96.0392 9.812 96.6572 9.956 97.1852 10.244C97.7252 10.532 98.1392 10.91 98.4272 11.378V9.956H101.505V20H98.4272V18.578C98.1272 19.046 97.7072 19.424 97.1672 19.712C96.6392 20 96.0212 20.144 95.3132 20.144C94.4972 20.144 93.7532 19.934 93.0812 19.514C92.4092 19.082 91.8752 18.476 91.4792 17.696C91.0952 16.904 90.9032 15.992 90.9032 14.96ZM98.4272 14.978C98.4272 14.21 98.2112 13.604 97.7792 13.16C97.3592 12.716 96.8432 12.494 96.2312 12.494C95.6192 12.494 95.0972 12.716 94.6652 13.16C94.2452 13.592 94.0352 14.192 94.0352 14.96C94.0352 15.728 94.2452 16.34 94.6652 16.796C95.0972 17.24 95.6192 17.462 96.2312 17.462C96.8432 17.462 97.3592 17.24 97.7792 16.796C98.2112 16.352 98.4272 15.746 98.4272 14.978ZM106.102 13.664C106.102 12.416 106.372 11.306 106.912 10.334C107.452 9.35 108.202 8.588 109.162 8.048C110.134 7.496 111.232 7.22 112.456 7.22C113.956 7.22 115.24 7.616 116.308 8.408C117.376 9.2 118.09 10.28 118.45 11.648H115.066C114.814 11.12 114.454 10.718 113.986 10.442C113.53 10.166 113.008 10.028 112.42 10.028C111.472 10.028 110.704 10.358 110.116 11.018C109.528 11.678 109.234 12.56 109.234 13.664C109.234 14.768 109.528 15.65 110.116 16.31C110.704 16.97 111.472 17.3 112.42 17.3C113.008 17.3 113.53 17.162 113.986 16.886C114.454 16.61 114.814 16.208 115.066 15.68H118.45C118.09 17.048 117.376 18.128 116.308 18.92C115.24 19.7 113.956 20.09 112.456 20.09C111.232 20.09 110.134 19.82 109.162 19.28C108.202 18.728 107.452 17.966 106.912 16.994C106.372 16.022 106.102 14.912 106.102 13.664ZM122.951 11.63C123.311 11.078 123.761 10.646 124.301 10.334C124.841 10.01 125.441 9.848 126.101 9.848V13.106H125.255C124.487 13.106 123.911 13.274 123.527 13.61C123.143 13.934 122.951 14.51 122.951 15.338V20H119.873V9.956H122.951V11.63ZM136.579 14.816C136.579 15.104 136.561 15.404 136.525 15.716H129.559C129.607 16.34 129.805 16.82 130.153 17.156C130.513 17.48 130.951 17.642 131.467 17.642C132.235 17.642 132.769 17.318 133.069 16.67H136.345C136.177 17.33 135.871 17.924 135.427 18.452C134.995 18.98 134.449 19.394 133.789 19.694C133.129 19.994 132.391 20.144 131.575 20.144C130.591 20.144 129.715 19.934 128.947 19.514C128.179 19.094 127.579 18.494 127.147 17.714C126.715 16.934 126.499 16.022 126.499 14.978C126.499 13.934 126.709 13.022 127.129 12.242C127.561 11.462 128.161 10.862 128.929 10.442C129.697 10.022 130.579 9.812 131.575 9.812C132.547 9.812 133.411 10.016 134.167 10.424C134.923 10.832 135.511 11.414 135.931 12.17C136.363 12.926 136.579 13.808 136.579 14.816ZM133.429 14.006C133.429 13.478 133.249 13.058 132.889 12.746C132.529 12.434 132.079 12.278 131.539 12.278C131.023 12.278 130.585 12.428 130.225 12.728C129.877 13.028 129.661 13.454 129.577 14.006H133.429ZM137.129 14.96C137.129 13.928 137.321 13.022 137.705 12.242C138.101 11.462 138.635 10.862 139.307 10.442C139.979 10.022 140.729 9.812 141.557 9.812C142.265 9.812 142.883 9.956 143.411 10.244C143.951 10.532 144.365 10.91 144.653 11.378V9.956H147.731V20H144.653V18.578C144.353 19.046 143.933 19.424 143.393 19.712C142.865 20 142.247 20.144 141.539 20.144C140.723 20.144 139.979 19.934 139.307 19.514C138.635 19.082 138.101 18.476 137.705 17.696C137.321 16.904 137.129 15.992 137.129 14.96ZM144.653 14.978C144.653 14.21 144.437 13.604 144.005 13.16C143.585 12.716 143.069 12.494 142.457 12.494C141.845 12.494 141.323 12.716 140.891 13.16C140.471 13.592 140.261 14.192 140.261 14.96C140.261 15.728 140.471 16.34 140.891 16.796C141.323 17.24 141.845 17.462 142.457 17.462C143.069 17.462 143.585 17.24 144.005 16.796C144.437 16.352 144.653 15.746 144.653 14.978ZM155.095 17.39V20H153.529C152.413 20 151.543 19.73 150.919 19.19C150.295 18.638 149.983 17.744 149.983 16.508V12.512H148.759V9.956H149.983V7.508H153.061V9.956H155.077V12.512H153.061V16.544C153.061 16.844 153.133 17.06 153.277 17.192C153.421 17.324 153.661 17.39 153.997 17.39H155.095ZM165.816 14.816C165.816 15.104 165.798 15.404 165.762 15.716H158.796C158.844 16.34 159.042 16.82 159.39 17.156C159.75 17.48 160.188 17.642 160.704 17.642C161.472 17.642 162.006 17.318 162.306 16.67H165.582C165.414 17.33 165.108 17.924 164.664 18.452C164.232 18.98 163.686 19.394 163.026 19.694C162.366 19.994 161.628 20.144 160.812 20.144C159.828 20.144 158.952 19.934 158.184 19.514C157.416 19.094 156.816 18.494 156.384 17.714C155.952 16.934 155.736 16.022 155.736 14.978C155.736 13.934 155.946 13.022 156.366 12.242C156.798 11.462 157.398 10.862 158.166 10.442C158.934 10.022 159.816 9.812 160.812 9.812C161.784 9.812 162.648 10.016 163.404 10.424C164.16 10.832 164.748 11.414 165.168 12.17C165.6 12.926 165.816 13.808 165.816 14.816ZM162.666 14.006C162.666 13.478 162.486 13.058 162.126 12.746C161.766 12.434 161.316 12.278 160.776 12.278C160.26 12.278 159.822 12.428 159.462 12.728C159.114 13.028 158.898 13.454 158.814 14.006H162.666Z" fill="white"/>
<path d="M16.408 9.01177C16.7852 9.85653 17.1344 10.4436 17.6588 11.3026C18.495 12.6819 18.9097 13.374 19.5832 14.1662C20.5877 15.3498 21.5181 16.0753 22.2773 16.648C23.025 17.2307 23.8495 17.7092 24.728 18.0702C25.2119 18.2825 25.7389 18.3805 26.2674 18.3566C26.5927 18.3365 27.0372 18.3022 27.4221 17.9748C27.6514 17.77 27.8181 17.5054 27.9032 17.2112C28.0323 16.8401 28.0323 16.4368 27.9032 16.0657C27.789 15.7612 27.5885 15.496 27.3258 15.3021C26.991 15.0892 26.7081 14.9356 26.5118 14.8344C26.1664 14.6559 25.9701 14.5814 25.5583 14.3571C25.4034 14.2712 25.2408 14.1777 25.0686 14.0708C24.4243 13.6743 23.813 13.2274 23.2404 12.7344C22.6918 12.2618 22.1773 11.7515 21.7009 11.2072C21.1718 10.6144 21.3536 10.7395 20.5463 9.77539C20.5463 9.77539 19.894 8.9965 19.5842 8.3436L19.5755 8.32451L19.5284 8.22906C19.3359 7.80429 18.9905 7.07122 18.622 6.15201C18.5469 5.9611 18.0889 4.80803 17.9485 3.76569C17.9063 3.53851 17.9401 3.3039 18.0447 3.09752C18.115 2.97398 18.2117 2.86722 18.3281 2.78476C18.4444 2.70231 18.5776 2.64615 18.7182 2.62026C19.4466 2.50953 19.715 3.57478 20.835 3.76569C21.2449 3.83537 21.2757 3.7046 21.7972 3.76569C22.3917 3.84349 22.9555 4.07379 23.4329 4.43386C23.3011 3.81819 22.8681 2.21936 21.4123 1.09301C20.987 0.763701 20.2702 0.224394 19.1993 0.138486C19.0367 0.125123 17.8907 0.0478062 16.8901 0.711203C16.3185 1.09957 15.8551 1.62491 15.543 2.23845C15.4238 2.48382 15.3271 2.73941 15.2544 3.00207C15.1581 3.34856 14.9657 4.34986 15.543 6.53382C15.7643 7.38135 16.0536 8.20998 16.408 9.01177V9.01177Z" fill="url(#paint0_linear_1585_23003)"/>
<g style="mix-blend-mode:multiply" opacity="0.6">
<path d="M15.19 4.03492C15.19 4.06547 15.19 4.09697 15.19 4.13038C15.1982 4.33897 15.2338 4.5456 15.2958 4.74509C15.4481 5.2294 15.7525 5.65276 16.1644 5.95342C16.5764 6.25408 17.0744 6.41632 17.5858 6.41647C17.7846 6.41623 17.9827 6.39187 18.1756 6.34393C18.3326 6.30438 18.4851 6.24905 18.6307 6.17879L18.6192 6.15111C18.5441 5.96021 18.0861 4.80714 17.9456 3.76479C17.904 3.53761 17.9378 3.30316 18.0418 3.09662C18.1121 2.97308 18.2089 2.86633 18.3252 2.78387C18.4416 2.70141 18.5748 2.64526 18.7154 2.61936C19.1705 2.55064 19.4457 2.93913 19.8613 3.28753C19.7382 2.91985 19.5267 2.58744 19.245 2.31902C18.9634 2.0506 18.6201 1.85425 18.2449 1.74692C18.2025 1.73547 18.1612 1.72401 18.1188 1.71447L18.063 1.70302C17.7493 1.64066 17.4261 1.64066 17.1124 1.70302C17.0508 1.71542 16.9902 1.72974 16.9305 1.74692H16.9199C16.7359 1.79986 16.5588 1.87453 16.3927 1.96933C16.2294 2.06374 16.0774 2.17613 15.9395 2.30437C15.702 2.52669 15.5129 2.79496 15.384 3.09261C15.2551 3.39026 15.189 3.71096 15.19 4.03492V4.03492Z" fill="url(#paint1_linear_1585_23003)"/>
</g>
<g style="mix-blend-mode:multiply" opacity="0.5">
<path d="M15.217 4.93871C15.216 4.94248 15.216 4.94641 15.217 4.95017C15.2606 5.22751 15.3249 5.50125 15.4094 5.76915C15.7641 6.89889 16.4531 7.89668 17.3869 8.63289C18.3207 9.36911 19.4561 9.80972 20.6456 9.89748C20.6138 9.85835 20.5792 9.81826 20.5436 9.7753C20.5436 9.7753 19.8912 8.99641 19.5814 8.34351L19.5727 8.32538L19.5256 8.22992C19.3332 7.80993 18.9945 7.08449 18.6308 6.18055C18.4851 6.25081 18.3326 6.30614 18.1757 6.34569C17.9828 6.39363 17.7847 6.41799 17.5858 6.41823C17.0743 6.41715 16.5765 6.25394 16.1651 5.95241C15.7536 5.65088 15.4501 5.22682 15.2987 4.74208C15.2368 4.54259 15.2012 4.33595 15.1929 4.12737C15.1929 4.09682 15.1929 4.06532 15.1929 4.03191C15.1924 3.70844 15.2586 3.38827 15.3875 3.09115C15.5164 2.79402 15.7053 2.52621 15.9424 2.30422C16.0803 2.17598 16.2323 2.06359 16.3956 1.96918C16.5618 1.87438 16.7388 1.79971 16.9229 1.74678H16.9335C16.9931 1.72959 17.0538 1.71528 17.1153 1.70287C17.4291 1.64051 17.7522 1.64051 18.066 1.70287L18.1218 1.71432C18.1641 1.72387 18.2055 1.73532 18.2478 1.74678C18.6231 1.85355 18.9666 2.04935 19.2485 2.31726C19.5305 2.58518 19.7425 2.91715 19.8662 3.28452C20.1388 3.53001 20.475 3.69528 20.837 3.76178C21.2469 3.83242 21.2777 3.70069 21.7992 3.76178C22.3936 3.84001 22.9573 4.07027 23.4349 4.42995C23.3031 3.81428 22.8701 2.21545 21.4143 1.08911C20.9891 0.759795 20.2722 0.221442 19.2013 0.13458C19.0387 0.121217 17.8937 0.0439 16.8921 0.707296C16.3206 1.09566 15.8572 1.621 15.5451 2.23454C15.4258 2.47992 15.3292 2.7355 15.2564 2.99816C15.2155 3.15477 15.1871 3.31436 15.1717 3.47542C15.1717 3.50024 15.1669 3.52506 15.164 3.55083C15.164 3.59856 15.1573 3.64628 15.1554 3.69497C15.1534 3.74365 15.1554 3.76369 15.1554 3.79901C15.1452 4.17993 15.1657 4.56106 15.217 4.93871V4.93871Z" fill="url(#paint2_linear_1585_23003)"/>
</g>
<g style="mix-blend-mode:multiply" opacity="0.3">
<path d="M15.4209 5.79972C15.4932 6.28478 15.6035 6.7635 15.7509 7.23151C16.3558 9.16284 17.5642 10.8533 19.2013 12.0585C20.8384 13.2637 22.8194 13.9213 24.8579 13.9361C24.2909 13.572 23.7502 13.1692 23.2396 12.7305C22.6907 12.2582 22.1762 11.7478 21.7001 11.2033C21.194 10.6373 21.3383 10.726 20.6475 9.89368C19.4637 9.80558 18.3335 9.36833 17.4022 8.63813C16.4708 7.90792 15.7808 6.91811 15.4209 5.7959V5.79972Z" fill="url(#paint3_linear_1585_23003)"/>
</g>
<g style="mix-blend-mode:soft-light" opacity="0.25">
<path d="M21.7598 16.267C21.932 16.4026 22.0965 16.5286 22.2543 16.6489C23.0019 17.2313 23.826 17.7098 24.704 18.0711C25.188 18.2833 25.7149 18.3813 26.2435 18.3575C26.5687 18.3374 27.0133 18.3031 27.3981 17.9756C27.6275 17.7709 27.7942 17.5063 27.8792 17.212C28.0088 16.841 28.0088 16.4376 27.8792 16.0666C27.7655 15.7619 27.5649 15.4966 27.3019 15.303L27.1432 15.2075C26.3979 15.8007 25.5196 16.207 24.5825 16.3921C23.6454 16.5772 22.6772 16.5356 21.7598 16.2709V16.267Z" fill="white"/>
</g>
<path d="M3.65626 24.3701C3.98061 24.7441 4.41383 25.0092 4.8963 25.1288C5.37877 25.2485 5.88676 25.2169 6.35036 25.0383C6.73974 24.8753 7.07852 24.6127 7.33209 24.2773C7.58566 23.9419 7.74493 23.5457 7.79363 23.1292C8.02162 22.0662 8.43028 21.0495 9.00212 20.1225C9.01848 20.0957 9.30713 19.6786 9.58616 19.2873C11.5981 16.4571 15.2544 15.7889 18.0966 14.254C18.2054 14.1891 18.3141 14.1233 18.4209 14.0555C18.7416 13.8531 19.0492 13.6409 19.3436 13.4188C19.8652 13.0274 20.3554 12.5966 20.81 12.1302C20.9582 11.9784 21.0986 11.8238 21.2391 11.6673C21.9493 10.9584 22.5423 10.1427 22.996 9.25041C23.1494 8.94933 23.2846 8.63952 23.4011 8.32261C24.2796 5.93629 23.2905 3.59292 23.2404 3.47552C23.0037 2.92189 22.4341 1.55405 21.0274 0.707389C20.5573 0.417819 20.0341 0.223191 19.4879 0.134673C18.697 0.024694 17.891 0.157953 17.1787 0.516484C16.7987 0.707389 15.7816 1.30588 15.3506 2.52099C15.2207 2.88902 15.1556 3.27649 15.1581 3.66642C15.2332 3.5347 16.0943 2.07714 17.5636 2.04373C17.6492 2.04373 18.5854 2.03418 19.2955 2.7119C21.1775 4.50832 19.2118 8.96978 18.6682 9.76585C18.392 10.1706 18.0437 10.5791 18.0437 10.5791C17.832 10.8281 17.6072 11.0658 17.3702 11.2912C17.1912 11.4487 16.9805 11.6224 16.74 11.8028C16.4994 11.9832 16.229 12.1694 15.9298 12.3526C15.2563 12.8299 14.4865 13.1162 13.7168 13.4981C11.8887 14.1662 10.0605 14.6435 8.33533 15.598C7.99176 15.7931 7.66737 16.0196 7.36642 16.2748C6.8709 16.6566 2.4824 20.1091 3.27331 23.4175C3.35394 23.7517 3.48292 24.0726 3.65626 24.3701V24.3701Z" fill="url(#paint4_linear_1585_23003)"/>
<g style="mix-blend-mode:soft-light" opacity="0.1">
<path d="M18.3054 2.11914C18.3208 2.13441 18.3352 2.15064 18.3487 2.16687C18.7022 2.27354 19.026 2.46011 19.2945 2.7119C19.8824 3.27316 20.0951 4.09406 20.0922 4.98272C20.5374 6.09884 20.7659 7.28838 20.7657 8.4887C20.7657 8.61374 20.7657 8.73783 20.758 8.86097C20.697 10.4514 20.2338 12.001 19.411 13.3673C19.9077 12.9887 20.3754 12.574 20.81 12.1264C20.9569 11.9743 21.0996 11.82 21.2381 11.6635C21.9484 10.9558 22.5416 10.1415 22.996 9.25041C23.0805 8.88806 23.1305 8.51862 23.1452 8.14698C23.1452 8.07062 23.1452 7.9933 23.1452 7.91598C23.1448 6.63319 22.7233 5.38542 21.9443 4.36152C21.1653 3.33762 20.0713 2.59334 18.8279 2.24132C18.7259 2.21268 18.621 2.18596 18.5161 2.16209L18.3776 2.1325L18.3054 2.11914Z" fill="white"/>
</g>
<g style="mix-blend-mode:soft-light" opacity="0.2">
<path d="M17.4519 2.02257C17.7629 2.03488 18.0724 2.07158 18.3775 2.13234L18.5161 2.16193C18.621 2.18579 18.7258 2.21252 18.8278 2.24115C20.0713 2.59318 21.1653 3.33746 21.9442 4.36136C22.7232 5.38525 23.1448 6.63302 23.1451 7.91582C23.1451 7.99313 23.1451 8.07045 23.1451 8.14681C23.1304 8.51845 23.0805 8.88789 22.996 9.25025C23.1491 8.94924 23.2846 8.63979 23.402 8.3234C23.8966 6.97943 23.7984 5.65073 23.6089 4.72006C22.8293 3.46682 21.606 2.54767 20.1787 2.14284C20.0767 2.1142 19.9718 2.08748 19.867 2.06361L19.7246 2.03689C19.3365 1.96002 18.9417 1.92133 18.5459 1.92139C18.1789 1.92117 17.8126 1.95505 17.4519 2.02257V2.02257Z" fill="white"/>
</g>
<g style="mix-blend-mode:soft-light" opacity="0.4">
<path d="M16.5908 2.24899C16.687 2.21463 16.79 2.18313 16.892 2.15354L16.9189 2.1459C17.0661 2.1039 17.2172 2.06763 17.3692 2.03804C17.7572 1.96038 18.1521 1.92137 18.5479 1.92159C18.943 1.92165 19.3372 1.96034 19.7246 2.03709L19.8632 2.06668C19.9681 2.09054 20.0729 2.11727 20.1749 2.1459C21.6022 2.55073 22.8256 3.46988 23.6051 4.72312C23.5222 4.29885 23.3988 3.88336 23.2366 3.48224C22.9861 2.84481 22.6375 2.24976 22.2032 1.71827C21.9836 1.6262 21.7587 1.54716 21.5297 1.48155C21.4277 1.45292 21.3228 1.42619 21.2179 1.40233L21.0717 1.36892C20.6836 1.29205 20.2888 1.25336 19.893 1.25342C19.4972 1.2532 19.1024 1.29221 18.7144 1.36987C18.5623 1.39946 18.4113 1.43573 18.2641 1.47773L18.2371 1.48537C17.6516 1.6534 17.0962 1.91104 16.5908 2.24899V2.24899Z" fill="white"/>
</g>
<g style="mix-blend-mode:soft-light" opacity="0.25">
<path d="M6.14429 19.9562C6.14314 21.3768 6.66062 22.7497 7.60103 23.8211C7.69921 23.601 7.76405 23.3678 7.79347 23.129C7.97007 22.3081 8.25407 21.5135 8.63826 20.7656C8.14611 20.0974 7.80106 19.334 7.62552 18.5249C7.44998 17.7159 7.44787 16.8793 7.61931 16.0693V16.0693C6.66711 17.1436 6.14265 18.5256 6.14429 19.9562V19.9562Z" fill="white"/>
</g>
<g style="mix-blend-mode:soft-light" opacity="0.5">
<path d="M4.28442 19.4933C4.4277 20.4386 4.80029 21.3352 5.37015 22.1061C5.94 22.8769 6.69006 23.4989 7.55583 23.9185C7.57187 23.8867 7.58726 23.8549 7.60202 23.823C6.66139 22.7468 6.14501 21.3694 6.14819 19.9449C6.15137 18.5205 6.67391 17.1453 7.61933 16.0732C7.50387 16.163 7.42016 16.2336 7.36724 16.2746C7.07089 16.4971 5.42364 17.7914 4.28442 19.4933Z" fill="white"/>
</g>
<g style="mix-blend-mode:soft-light" opacity="0.75">
<path d="M3.27134 23.4153C3.35284 23.7501 3.48246 24.0716 3.65621 24.3698C3.98056 24.7438 4.41378 25.0089 4.89625 25.1286C5.37872 25.2482 5.88671 25.2166 6.35031 25.038C6.87545 24.8228 7.30319 24.4246 7.55303 23.9184C6.68727 23.4987 5.9372 22.8767 5.36735 22.1059C4.79749 21.3351 4.42491 20.4385 4.28163 19.4932C3.49264 20.6777 2.94612 22.0589 3.27134 23.4153Z" fill="white"/>
</g>
<path d="M11.592 8.9146C11.2148 9.75936 10.8656 10.3464 10.3412 11.2055C9.50503 12.5848 9.09033 13.2768 8.41681 14.069C7.41229 15.2527 6.48187 15.9781 5.72271 16.5508C4.97501 17.1335 4.15048 17.6121 3.27204 17.9731C2.78809 18.1853 2.26113 18.2833 1.73255 18.2594C1.40734 18.2394 0.962812 18.205 0.577941 17.8776C0.348573 17.6729 0.181866 17.4082 0.0968524 17.114C-0.0322497 16.7429 -0.0322497 16.3396 0.0968524 15.9686C0.210961 15.6641 0.411463 15.3989 0.674159 15.2049C1.009 14.9921 1.29188 14.8384 1.48816 14.7372C1.83358 14.5587 2.02987 14.4843 2.44168 14.26C2.59659 14.174 2.7592 14.0805 2.93143 13.9736C3.5757 13.5771 4.18702 13.1303 4.75957 12.6373C5.30823 12.1647 5.82266 11.6543 6.29905 11.11C6.82825 10.5173 6.6464 10.6423 7.45367 9.67822C7.45367 9.67822 8.10603 8.89933 8.41585 8.24643L8.42451 8.22734L8.47165 8.13189C8.66409 7.70713 9.00951 6.97405 9.37802 6.05484C9.45307 5.86393 9.91107 4.71086 10.0515 3.66852C10.0937 3.44135 10.0599 3.20674 9.95533 3.00035C9.88504 2.87681 9.7883 2.77005 9.67194 2.6876C9.55557 2.60514 9.42241 2.54899 9.28181 2.52309C8.55344 2.41236 8.28499 3.47762 7.16501 3.66852C6.75513 3.7382 6.72434 3.60743 6.20284 3.66852C5.6083 3.74632 5.04451 3.97663 4.56713 4.33669C4.69895 3.72102 5.13193 2.12219 6.58771 0.995845C7.01299 0.666533 7.72981 0.127226 8.80072 0.0413183C8.96333 0.0279549 10.1093 -0.0493617 11.1099 0.614035C11.6815 1.0024 12.1449 1.52774 12.457 2.14128C12.5762 2.38666 12.6729 2.64224 12.7456 2.9049C12.8419 3.25139 13.0343 4.25269 12.457 6.43665C12.2357 7.28418 11.9464 8.11281 11.592 8.9146V8.9146Z" fill="url(#paint5_linear_1585_23003)"/>
<g style="mix-blend-mode:multiply" opacity="0.6">
<path d="M12.8103 3.93776C12.8103 3.9683 12.8103 3.9998 12.8103 4.03321C12.802 4.2418 12.7664 4.44843 12.7045 4.64793C12.5521 5.13224 12.2478 5.55559 11.8358 5.85625C11.4239 6.15691 10.9259 6.31915 10.4145 6.3193C10.2156 6.31906 10.0175 6.2947 9.82465 6.24676C9.66768 6.20722 9.51519 6.15189 9.36954 6.08163L9.38109 6.05394C9.45614 5.86304 9.91414 4.70997 10.0546 3.66763C10.0963 3.44044 10.0625 3.20599 9.9584 2.99946C9.8881 2.87592 9.79137 2.76916 9.675 2.6867C9.55864 2.60424 9.42547 2.54809 9.28487 2.52219C8.82976 2.45347 8.55458 2.84196 8.13891 3.19036C8.26204 2.82268 8.47356 2.49027 8.7552 2.22185C9.03683 1.95343 9.38011 1.75708 9.75538 1.64976C9.79771 1.6383 9.83909 1.62685 9.88142 1.6173L9.93723 1.60585C10.251 1.54349 10.5741 1.54349 10.8879 1.60585C10.9494 1.61826 11.0101 1.63257 11.0697 1.64976H11.0803C11.2644 1.70269 11.4414 1.77736 11.6076 1.87216C11.7709 1.96657 11.9229 2.07896 12.0608 2.2072C12.2983 2.42952 12.4873 2.69779 12.6163 2.99544C12.7452 3.29309 12.8112 3.6138 12.8103 3.93776V3.93776Z" fill="url(#paint6_linear_1585_23003)"/>
</g>
<g style="mix-blend-mode:multiply" opacity="0.5">
<path d="M12.7833 4.84155C12.7842 4.84531 12.7842 4.84924 12.7833 4.853C12.7396 5.13034 12.6753 5.40409 12.5909 5.67198C12.2361 6.80172 11.5471 7.79951 10.6133 8.53573C9.67954 9.27194 8.54416 9.71255 7.35468 9.80031C7.38643 9.76118 7.42107 9.72109 7.45667 9.67813C7.45667 9.67813 8.10903 8.89924 8.41885 8.24634L8.42751 8.22821L8.47466 8.13276C8.66709 7.71276 9.00578 6.98732 9.36948 6.08339C9.51513 6.15365 9.66762 6.20898 9.82459 6.24852C10.0175 6.29646 10.2156 6.32082 10.4144 6.32106C10.9259 6.31998 11.4237 6.15677 11.8352 5.85524C12.2466 5.55372 12.5501 5.12965 12.7015 4.64491C12.7635 4.44542 12.7991 4.23879 12.8073 4.0302C12.8073 3.99965 12.8073 3.96815 12.8073 3.93475C12.8079 3.61127 12.7416 3.29111 12.6127 2.99398C12.4838 2.69685 12.295 2.42904 12.0578 2.20705C11.9199 2.07882 11.7679 1.96643 11.6046 1.87201C11.4385 1.77721 11.2614 1.70254 11.0773 1.64961H11.0668C11.0071 1.63243 10.9465 1.61811 10.8849 1.6057C10.5712 1.54335 10.248 1.54335 9.93428 1.6057L9.87847 1.61715C9.83614 1.6267 9.79476 1.63815 9.75243 1.64961C9.37713 1.75638 9.03367 1.95218 8.7517 2.2201C8.46974 2.48801 8.25775 2.81998 8.13404 3.18735C7.86142 3.43284 7.52524 3.59811 7.16321 3.66461C6.75332 3.73525 6.72253 3.60352 6.20103 3.66461C5.60661 3.74284 5.04292 3.9731 4.56532 4.33278C4.69714 3.71711 5.13012 2.11828 6.5859 0.991939C7.01118 0.662627 7.72801 0.124274 8.79891 0.0374121C8.96152 0.0240487 10.1065 -0.053268 11.1081 0.610128C11.6797 0.998494 12.143 1.52384 12.4552 2.13737C12.5744 2.38275 12.671 2.63833 12.7438 2.90099C12.7848 3.0576 12.8131 3.21719 12.8285 3.37826C12.8285 3.40307 12.8333 3.42789 12.8362 3.45366C12.8362 3.50139 12.8429 3.54912 12.8449 3.5978C12.8468 3.64648 12.8449 3.66652 12.8449 3.70184C12.8551 4.08277 12.8345 4.46389 12.7833 4.84155V4.84155Z" fill="url(#paint7_linear_1585_23003)"/>
</g>
<g style="mix-blend-mode:multiply" opacity="0.3">
<path d="M12.5793 5.70255C12.5071 6.18761 12.3967 6.66633 12.2493 7.13434C11.6444 9.06567 10.4361 10.7561 8.79897 11.9614C7.16188 13.1666 5.18087 13.8241 3.1423 13.8389C3.7093 13.4748 4.25007 13.072 4.76068 12.6334C5.30958 12.161 5.82403 11.6507 6.30017 11.1061C6.80627 10.5401 6.66195 10.6289 7.35279 9.79651C8.53656 9.70841 9.66673 9.27116 10.5981 8.54096C11.5294 7.81075 12.2194 6.82095 12.5793 5.69873V5.70255Z" fill="url(#paint8_linear_1585_23003)"/>
</g>
<g style="mix-blend-mode:soft-light" opacity="0.25">
<path d="M6.24048 16.1699C6.06825 16.3054 5.90372 16.4314 5.74592 16.5517C4.99837 17.1341 4.1742 17.6126 3.29621 17.9739C2.81226 18.1862 2.2853 18.2842 1.75673 18.2603C1.43151 18.2402 0.986982 18.2059 0.602111 17.8785C0.372743 17.6737 0.206035 17.4091 0.121021 17.1149C-0.00860282 16.7439 -0.00860282 16.3404 0.121021 15.9694C0.234788 15.6648 0.435357 15.3995 0.698329 15.2058L0.857087 15.1104C1.60235 15.7035 2.48069 16.1098 3.41775 16.2949C4.35482 16.48 5.32304 16.4384 6.24048 16.1737V16.1699Z" fill="white"/>
</g>
<path d="M24.3437 24.2729C24.0194 24.6469 23.5862 24.912 23.1037 25.0317C22.6212 25.1513 22.1132 25.1197 21.6496 24.9411C21.2603 24.7781 20.9215 24.5155 20.6679 24.1801C20.4143 23.8447 20.2551 23.4485 20.2064 23.0321C19.9784 21.9691 19.5697 20.9523 18.9979 20.0253C18.9815 19.9986 18.6929 19.5814 18.4138 19.1901C16.4019 16.3599 12.7456 15.6917 9.90336 14.1569C9.79464 14.092 9.68591 14.0261 9.57911 13.9583C9.25838 13.756 8.95081 13.5437 8.65638 13.3217C8.13482 12.9303 7.64457 12.4995 7.19002 12.033C7.04184 11.8813 6.90136 11.7266 6.76088 11.5701C6.05068 10.8612 5.45773 10.0456 5.00395 9.15324C4.85061 8.85216 4.71535 8.54235 4.59887 8.22544C3.7204 5.83912 4.70952 3.49576 4.75955 3.37835C4.99625 2.82472 5.56586 1.45689 6.97257 0.610221C7.44273 0.320651 7.96589 0.126023 8.51205 0.0375052C9.30304 -0.0724739 10.109 0.0607848 10.8213 0.419316C11.2013 0.610221 12.2184 1.20871 12.6494 2.42382C12.7793 2.79185 12.8444 3.17932 12.8419 3.56926C12.7668 3.43753 11.9057 1.97997 10.4364 1.94656C10.3508 1.94656 9.41458 1.93701 8.70449 2.61473C6.82247 4.41115 8.7882 8.87261 9.33183 9.66868C9.60797 10.0734 9.95628 10.4819 9.95628 10.4819C10.168 10.7309 10.3928 10.9686 10.6298 11.194C10.8088 11.3515 11.0195 11.5252 11.26 11.7056C11.5006 11.886 11.771 12.0722 12.0702 12.2555C12.7437 12.7327 13.5135 13.0191 14.2832 13.4009C16.1113 14.0691 17.9395 14.5463 19.6647 15.5008C20.0082 15.6959 20.3326 15.9225 20.6336 16.1776C21.1291 16.5594 25.5176 20.0119 24.7267 23.3203C24.6461 23.6545 24.5171 23.9754 24.3437 24.2729V24.2729Z" fill="url(#paint9_linear_1585_23003)"/>
<g style="mix-blend-mode:soft-light" opacity="0.4">
<path d="M11.4092 2.15182C11.313 2.11746 11.21 2.08596 11.108 2.05637L11.0811 2.04873C10.9339 2.00673 10.7828 1.97046 10.6308 1.94087C10.2428 1.86322 9.84793 1.8242 9.45211 1.82442C9.05699 1.82449 8.66284 1.86317 8.27536 1.93992L8.13681 1.96951C8.03193 1.99337 7.92705 2.0201 7.82506 2.04873C6.3978 2.45356 5.17445 3.37271 4.39489 4.62596C4.47784 4.20168 4.60123 3.78619 4.76341 3.38507C5.01393 2.74765 5.36253 2.15259 5.79679 1.62111C6.01638 1.52904 6.24128 1.44999 6.47032 1.38438C6.57231 1.35575 6.67718 1.32902 6.78206 1.30516L6.92831 1.27175C7.31642 1.19488 7.71122 1.15619 8.10698 1.15625C8.5028 1.15603 8.89765 1.19505 9.28565 1.2727C9.43767 1.30229 9.58874 1.33857 9.73595 1.38056L9.76289 1.3882C10.3484 1.55623 10.9038 1.81387 11.4092 2.15182V2.15182Z" fill="white"/>
</g>
<g style="mix-blend-mode:soft-light" opacity="0.1">
<path d="M9.69458 2.02197C9.67919 2.03725 9.66475 2.05347 9.65128 2.0697C9.29776 2.17637 8.97401 2.36294 8.70546 2.61473C8.11757 3.176 7.90493 3.99689 7.90781 4.88555C7.46261 6.00167 7.23409 7.19121 7.23429 8.39153C7.23429 8.51657 7.23429 8.64066 7.24199 8.7638C7.30295 10.3542 7.76618 11.9039 8.58904 13.2701C8.09225 12.8916 7.62462 12.4768 7.19003 12.0292C7.04314 11.8771 6.90041 11.7228 6.76186 11.5663C6.05164 10.8586 5.45838 10.0443 5.00396 9.15324C4.91947 8.79089 4.86953 8.42145 4.85482 8.04981C4.85482 7.97345 4.85482 7.89613 4.85482 7.81881C4.85515 6.53602 5.27672 5.28825 6.0557 4.26435C6.83468 3.24046 7.92868 2.49617 9.17212 2.14415C9.27411 2.11552 9.37899 2.08879 9.48386 2.06493L9.62242 2.03534L9.69458 2.02197Z" fill="white"/>
</g>
<g style="mix-blend-mode:soft-light" opacity="0.2">
<path d="M10.5479 1.9254C10.2369 1.93771 9.92737 1.97442 9.62224 2.03517L9.48368 2.06476C9.37881 2.08862 9.27393 2.11535 9.17194 2.14399C7.9285 2.49601 6.8345 3.24029 6.05552 4.26419C5.27654 5.28808 4.85498 6.53586 4.85464 7.81865C4.85464 7.89597 4.85464 7.97328 4.85464 8.04965C4.86936 8.42128 4.91929 8.79072 5.00378 9.15308C4.85071 8.85208 4.71514 8.54262 4.59774 8.22623C4.10318 6.88226 4.20132 5.55356 4.39087 4.62289C5.17043 3.36965 6.39377 2.4505 7.82104 2.04567C7.92303 2.01703 8.02791 1.99031 8.13278 1.96644L8.27519 1.93972C8.66329 1.86285 9.05809 1.82416 9.45386 1.82422C9.8209 1.824 10.1872 1.85788 10.5479 1.9254V1.9254Z" fill="white"/>
</g>
<g style="mix-blend-mode:soft-light" opacity="0.1">
<path d="M12.8427 3.5578C12.4868 2.78546 11.9674 2.09818 11.3199 1.54264C10.6724 0.987099 9.91197 0.576312 9.09025 0.338181V0.338181L9.06331 0.330545C8.9161 0.288546 8.76504 0.252274 8.61301 0.222683C8.4302 0.186411 8.2445 0.157776 8.05591 0.138685C8.20565 0.0942716 8.35838 0.0604599 8.51295 0.0375052C9.30394 -0.0724739 10.1099 0.0607848 10.8222 0.419316C11.2022 0.610221 12.2193 1.20871 12.6503 2.42382C12.7791 2.78818 12.8442 3.17169 12.8427 3.5578Z" fill="white"/>
</g>
<g style="mix-blend-mode:soft-light" opacity="0.25">
<path d="M21.8557 19.859C21.8569 21.2796 21.3394 22.6525 20.399 23.7239C20.3008 23.5039 20.2359 23.2707 20.2065 23.0318C20.0299 22.2109 19.7459 21.4164 19.3617 20.6684C19.8539 20.0002 20.1989 19.2368 20.3745 18.4278C20.55 17.6187 20.5521 16.7821 20.3807 15.9722V15.9722C21.3329 17.0465 21.8573 18.4285 21.8557 19.859V19.859Z" fill="white"/>
</g>
<g style="mix-blend-mode:soft-light" opacity="0.5">
<path d="M23.7156 19.3961C23.5723 20.3414 23.1997 21.2381 22.6299 22.0089C22.06 22.7797 21.3099 23.4017 20.4442 23.8213C20.4281 23.7895 20.4127 23.7577 20.398 23.7259C21.3386 22.6497 21.855 21.2722 21.8518 19.8478C21.8486 18.4233 21.3261 17.0481 20.3807 15.9761C20.4961 16.0658 20.5798 16.1364 20.6328 16.1775C20.9291 16.3999 22.5764 17.6942 23.7156 19.3961Z" fill="white"/>
</g>
<g style="mix-blend-mode:soft-light" opacity="0.75">
<path d="M24.7287 23.3181C24.6472 23.653 24.5175 23.9744 24.3438 24.2727C24.0194 24.6467 23.5862 24.9117 23.1037 25.0314C22.6213 25.151 22.1133 25.1194 21.6497 24.9408C21.1246 24.7256 20.6968 24.3274 20.447 23.8212C21.3127 23.4015 22.0628 22.7796 22.6327 22.0087C23.2025 21.2379 23.5751 20.3413 23.7184 19.396C24.5074 20.5806 25.0539 21.9618 24.7287 23.3181Z" fill="white"/>
</g>
<g style="mix-blend-mode:soft-light" opacity="0.7">
<path d="M17.4904 14.5682C16.3907 15.0961 15.2053 15.5361 14.0603 16.0458C12.9134 15.538 11.727 15.0961 10.6292 14.5653C11.6712 14.1749 12.7344 13.8514 13.7966 13.4629C13.8852 13.419 13.9727 13.377 14.0612 13.335C14.1661 13.3836 14.272 13.4304 14.3768 13.4867C15.4208 13.8685 16.4657 14.1874 17.4904 14.5682Z" fill="url(#paint10_linear_1585_23003)"/>
</g>
<g style="mix-blend-mode:soft-light" opacity="0.5">
<path fill-rule="evenodd" clip-rule="evenodd" d="M23.1013 25.0317C23.5837 24.912 24.017 24.6469 24.3413 24.2729C24.5146 23.9754 24.6436 23.6545 24.7242 23.3203C25.5152 20.0119 21.1267 16.5594 20.6311 16.1776C20.3302 15.9225 20.0058 15.6959 19.6622 15.5008C18.4056 14.8056 17.0944 14.3635 15.7683 13.9165C15.2738 13.7498 14.7773 13.5824 14.2808 13.4009C14.0585 13.2907 13.8363 13.1884 13.6164 13.0872C13.0746 12.8378 12.5468 12.5949 12.0678 12.2555C11.7685 12.0722 11.4981 11.886 11.2576 11.7056C11.0171 11.5252 10.8063 11.3515 10.6274 11.194C10.3904 10.9686 10.1655 10.7309 9.95385 10.4819C9.95385 10.4819 9.60554 10.0734 9.32939 9.66868C8.78576 8.87261 6.82003 4.41115 8.70205 2.61473C9.40345 1.94531 10.3255 1.94643 10.4305 1.94656L10.434 1.94656C11.9032 1.97997 12.7644 3.43753 12.8394 3.56926C12.842 3.17932 12.7769 2.79185 12.647 2.42382C12.2159 1.20871 11.1989 0.610221 10.8188 0.419316C10.1066 0.0607848 9.30061 -0.0724739 8.50962 0.0375052C7.96346 0.126023 7.44029 0.320651 6.97013 0.610221C5.58292 1.44516 5.00976 2.78692 4.76715 3.35487L4.75712 3.37835C4.70709 3.49576 3.71797 5.83912 4.59644 8.22544C4.71291 8.54235 4.84818 8.85216 5.00151 9.15324C5.4553 10.0456 6.04824 10.8612 6.75845 11.5701C6.89893 11.7266 7.03941 11.8813 7.18758 12.033C7.64214 12.4995 8.13239 12.9303 8.65394 13.3217C8.94837 13.5437 9.25595 13.756 9.57667 13.9583C9.68348 14.0261 9.7922 14.092 9.90093 14.1569C10.7464 14.6135 11.6639 14.9933 12.5888 15.3763C14.773 16.2806 16.998 17.2018 18.4114 19.1901C18.6904 19.5814 18.9791 19.9986 18.9954 20.0253C19.5673 20.9523 19.9759 21.9691 20.2039 23.0321C20.2526 23.4485 20.4119 23.8447 20.6655 24.1801C20.919 24.5155 21.2578 24.7781 21.6472 24.9411C22.1108 25.1197 22.6188 25.1513 23.1013 25.0317ZM11.1056 2.05632C11.2076 2.08591 11.3105 2.11741 11.4067 2.15177C10.9014 1.81382 10.3459 1.55618 9.76044 1.38815L9.7335 1.38051C9.58629 1.33851 9.43523 1.30224 9.2832 1.27265C8.8952 1.19499 8.50035 1.15598 8.10453 1.1562C7.70877 1.15614 7.31397 1.19483 6.92586 1.2717L6.77961 1.30511C6.67473 1.32897 6.56986 1.3557 6.46787 1.38433C6.23883 1.44994 6.01393 1.52899 5.79434 1.62105C5.36008 2.15254 5.01148 2.74759 4.76096 3.38502C4.59879 3.78614 4.47539 4.20163 4.39245 4.62591C5.172 3.37266 6.39535 2.45351 7.82261 2.04868C7.92461 2.02005 8.02948 1.99332 8.13436 1.96946L8.27291 1.93987C8.66039 1.86312 9.05454 1.82444 9.44966 1.82437C9.84548 1.82415 10.2403 1.86316 10.6283 1.94082C10.7804 1.97041 10.9314 2.00668 11.0786 2.04868L11.1056 2.05632Z" fill="white"/>
</g>
<g style="mix-blend-mode:soft-light" opacity="0.5">
<path fill-rule="evenodd" clip-rule="evenodd" d="M4.89435 25.1274C4.41188 25.0077 3.97865 24.7426 3.65431 24.3687C3.48097 24.0711 3.35198 23.7502 3.27136 23.416C2.48045 20.1076 6.86895 16.6551 7.36447 16.2733C7.66542 16.0182 7.98981 15.7916 8.33338 15.5965C9.59 14.9013 10.9012 14.4592 12.2273 14.0122C12.7218 13.8455 13.2183 13.6781 13.7148 13.4966C13.9371 13.3864 14.1593 13.2841 14.3792 13.1829C14.921 12.9335 15.4488 12.6906 15.9279 12.3512C16.2271 12.1679 16.4975 11.9818 16.738 11.8013C16.9786 11.6209 17.1893 11.4472 17.3682 11.2897C17.6053 11.0643 17.8301 10.8266 18.0418 10.5776C18.0418 10.5776 18.3901 10.1691 18.6662 9.76439C19.2099 8.96831 21.1756 4.50685 19.2936 2.71043C18.5922 2.04101 17.6701 2.04213 17.5652 2.04226L17.5616 2.04226C16.0924 2.07567 15.2312 3.53323 15.1562 3.66496C15.1536 3.27502 15.2187 2.88756 15.3486 2.51953C15.7797 1.30441 16.7967 0.705925 17.1768 0.515019C17.889 0.156488 18.695 0.0232292 19.486 0.133208C20.0322 0.221727 20.5553 0.416354 21.0255 0.705925C22.4127 1.54086 22.9859 2.88262 23.2285 3.45058L23.2385 3.47405C23.2885 3.59146 24.2776 5.93482 23.3992 8.32114C23.2827 8.63806 23.1474 8.94786 22.9941 9.24894C22.5403 10.1413 21.9474 10.9569 21.2372 11.6658C21.0967 11.8223 20.9562 11.977 20.808 12.1287C20.3535 12.5952 19.8632 13.026 19.3417 13.4174C19.0472 13.6394 18.7397 13.8517 18.4189 14.054C18.3121 14.1218 18.2034 14.1877 18.0947 14.2526C17.2492 14.7092 16.3317 15.089 15.4068 15.472C13.2226 16.3763 10.9976 17.2975 9.58421 19.2858C9.30518 19.6771 9.01653 20.0943 9.00017 20.121C8.42833 21.048 8.01967 22.0648 7.79167 23.1278C7.74298 23.5442 7.58371 23.9404 7.33014 24.2758C7.07657 24.6112 6.73778 24.8738 6.34841 25.0368C5.88481 25.2154 5.37682 25.247 4.89435 25.1274ZM16.89 2.15202C16.788 2.18161 16.6851 2.21311 16.5889 2.24747C17.0943 1.90952 17.6497 1.65188 18.2352 1.48385L18.2621 1.47622C18.4093 1.43422 18.5604 1.39795 18.7124 1.36836C19.1004 1.2907 19.4953 1.25169 19.8911 1.2519C20.2868 1.25184 20.6816 1.29053 21.0697 1.3674L21.216 1.40081C21.3209 1.42467 21.4257 1.4514 21.5277 1.48003C21.7568 1.54564 21.9817 1.62469 22.2013 1.71676C22.6355 2.24825 22.9841 2.8433 23.2346 3.48072C23.3968 3.88184 23.5202 4.29734 23.6032 4.72161C22.8236 3.46836 21.6003 2.54921 20.173 2.14439C20.071 2.11575 19.9661 2.08902 19.8612 2.06516L19.7227 2.03557C19.3352 1.95882 18.9411 1.92014 18.5459 1.92007C18.1501 1.91986 17.7553 1.95887 17.3673 2.03652C17.2153 2.06611 17.0642 2.10239 16.917 2.14439L16.89 2.15202Z" fill="white"/>
</g>
<defs>
<linearGradient id="paint0_linear_1585_23003" x1="21.5724" y1="0.128906" x2="21.5724" y2="18.3601" gradientUnits="userSpaceOnUse">
<stop stop-color="#5EA5F0"/>
<stop offset="1" stop-color="#5947D2"/>
<stop offset="1" stop-color="#9225FF"/>
</linearGradient>
<linearGradient id="paint1_linear_1585_23003" x1="17.5256" y1="1.65625" x2="17.5256" y2="6.41647" gradientUnits="userSpaceOnUse">
<stop stop-color="#5EA5F0"/>
<stop offset="1" stop-color="#5947D2"/>
<stop offset="1" stop-color="#9225FF"/>
</linearGradient>
<linearGradient id="paint2_linear_1585_23003" x1="19.2939" y1="0.125" x2="19.2939" y2="9.89748" gradientUnits="userSpaceOnUse">
<stop stop-color="#5EA5F0"/>
<stop offset="1" stop-color="#5947D2"/>
<stop offset="1" stop-color="#9225FF"/>
</linearGradient>
<linearGradient id="paint3_linear_1585_23003" x1="20.1394" y1="5.7959" x2="20.1394" y2="13.9361" gradientUnits="userSpaceOnUse">
<stop stop-color="#5EA5F0"/>
<stop offset="1" stop-color="#5947D2"/>
<stop offset="1" stop-color="#9225FF"/>
</linearGradient>
<linearGradient id="paint4_linear_1585_23003" x1="13.4708" y1="0.097168" x2="13.4708" y2="25.2001" gradientUnits="userSpaceOnUse">
<stop stop-color="#5EA5F0"/>
<stop offset="1" stop-color="#5947D2"/>
<stop offset="1" stop-color="#9225FF"/>
</linearGradient>
<linearGradient id="paint5_linear_1585_23003" x1="6.42762" y1="0.0317383" x2="6.42762" y2="18.2629" gradientUnits="userSpaceOnUse">
<stop stop-color="#5EA5F0"/>
<stop offset="1" stop-color="#5947D2"/>
<stop offset="1" stop-color="#9225FF"/>
</linearGradient>
<linearGradient id="paint6_linear_1585_23003" x1="10.4746" y1="1.55908" x2="10.4746" y2="6.3193" gradientUnits="userSpaceOnUse">
<stop stop-color="#5EA5F0"/>
<stop offset="1" stop-color="#5947D2"/>
<stop offset="1" stop-color="#9225FF"/>
</linearGradient>
<linearGradient id="paint7_linear_1585_23003" x1="8.70637" y1="0.027832" x2="8.70637" y2="9.80031" gradientUnits="userSpaceOnUse">
<stop stop-color="#5EA5F0"/>
<stop offset="1" stop-color="#5947D2"/>
<stop offset="1" stop-color="#9225FF"/>
</linearGradient>
<linearGradient id="paint8_linear_1585_23003" x1="7.86082" y1="5.69873" x2="7.86082" y2="13.8389" gradientUnits="userSpaceOnUse">
<stop stop-color="#5EA5F0"/>
<stop offset="1" stop-color="#5947D2"/>
<stop offset="1" stop-color="#9225FF"/>
</linearGradient>
<linearGradient id="paint9_linear_1585_23003" x1="14.5292" y1="0" x2="14.5292" y2="25.1029" gradientUnits="userSpaceOnUse">
<stop stop-color="#5EA5F0"/>
<stop offset="1" stop-color="#5947D2"/>
<stop offset="1" stop-color="#9225FF"/>
</linearGradient>
<linearGradient id="paint10_linear_1585_23003" x1="14.0598" y1="13.335" x2="14.0598" y2="16.0458" gradientUnits="userSpaceOnUse">
<stop stop-color="#5EA5F0"/>
<stop offset="1" stop-color="#5947D2"/>
<stop offset="1" stop-color="#9225FF"/>
</linearGradient>
</defs>
</svg>
