<svg width="50" height="46" viewBox="0 0 50 46" preserveAspectRatio="xMinYMin meet" fill="none" xmlns="http://www.w3.org/2000/svg">
<path d="M29.3002 16.5924C29.9737 18.1009 30.5974 19.1491 31.5338 20.6832C33.0269 23.1462 33.7675 24.382 34.9702 25.7967C36.764 27.9103 38.4254 29.2058 39.7811 30.2285C41.1162 31.269 42.5886 32.1235 44.1573 32.7682C45.0215 33.1472 45.9625 33.3222 46.9064 33.2795C47.4871 33.2437 48.2809 33.1824 48.9682 32.5977C49.3777 32.2321 49.6754 31.7596 49.8273 31.2341C50.0578 30.5715 50.0578 29.8513 49.8273 29.1887C49.6235 28.645 49.2654 28.1714 48.7963 27.8251C48.1984 27.445 47.6933 27.1706 47.3428 26.9899C46.7259 26.6711 46.3754 26.5382 45.6401 26.1376C45.3634 25.9842 45.0731 25.8172 44.7655 25.6263C43.615 24.9183 42.5234 24.1203 41.501 23.24C40.5212 22.396 39.6026 21.4847 38.7519 20.5127C37.8069 19.4542 38.1316 19.6775 36.6901 17.956C36.6901 17.956 35.5252 16.5651 34.9719 15.3992L34.9564 15.3651L34.8722 15.1947C34.5286 14.4362 33.9118 13.1271 33.2537 11.4856C33.1197 11.1447 32.3019 9.08569 32.051 7.22436C31.9758 6.81869 32.0361 6.39974 32.2228 6.0312C32.3483 5.81059 32.5211 5.61995 32.7289 5.47271C32.9367 5.32546 33.1745 5.22519 33.4255 5.17894C34.7262 4.98122 35.2056 6.88345 37.2055 7.22436C37.9375 7.34879 37.9925 7.11527 38.9237 7.22436C39.9854 7.36329 40.9921 7.77454 41.8446 8.41752C41.6092 7.31811 40.836 4.46305 38.2364 2.45172C37.477 1.86367 36.197 0.900616 34.2846 0.74721C33.9943 0.723347 31.9479 0.585281 30.161 1.76992C29.1404 2.46343 28.313 3.40154 27.7556 4.49714C27.5426 4.93531 27.3701 5.39171 27.2401 5.86075C27.0683 6.47949 26.7247 8.26752 27.7556 12.1674C28.1507 13.6809 28.6673 15.1606 29.3002 16.5924V16.5924Z" fill="url(#paint0_linear_559_10226)"/>
<g style="mix-blend-mode:multiply" opacity="0.6">
<path d="M27.125 7.70503C27.125 7.75957 27.125 7.81582 27.125 7.87548C27.1398 8.24796 27.2033 8.61695 27.314 8.97319C27.5861 9.83803 28.1295 10.594 28.8652 11.1309C29.6008 11.6678 30.49 11.9575 31.4033 11.9578C31.7584 11.9574 32.1121 11.9139 32.4565 11.8282C32.7368 11.7576 33.0091 11.6588 33.2692 11.5334L33.2486 11.4839C33.1146 11.143 32.2967 9.08398 32.0459 7.22265C31.9715 6.81697 32.0318 6.3983 32.2177 6.0295C32.3432 5.80888 32.516 5.61825 32.7237 5.471C32.9315 5.32376 33.1693 5.22348 33.4204 5.17724C34.2331 5.05451 34.7245 5.74825 35.4668 6.3704C35.2469 5.71382 34.8692 5.12023 34.3663 4.64091C33.8633 4.16159 33.2503 3.81096 32.5802 3.61931C32.5046 3.59886 32.4307 3.57841 32.3551 3.56136L32.2555 3.54091C31.6952 3.42956 31.1182 3.42956 30.5579 3.54091C30.448 3.56307 30.3397 3.58863 30.2332 3.61931H30.2143C29.8856 3.71384 29.5694 3.84718 29.2727 4.01647C28.9812 4.18506 28.7097 4.38576 28.4635 4.61475C28.0393 5.01175 27.7017 5.49081 27.4715 6.02232C27.2413 6.55384 27.1234 7.12653 27.125 7.70503V7.70503Z" fill="url(#paint1_linear_559_10226)"/>
</g>
<g style="mix-blend-mode:multiply" opacity="0.5">
<path d="M27.1731 9.31919C27.1714 9.3259 27.1714 9.33292 27.1731 9.33964C27.251 9.83489 27.3659 10.3237 27.5167 10.8021C28.1502 12.8195 29.3806 14.6013 31.048 15.9159C32.7155 17.2306 34.743 18.0174 36.867 18.1741C36.8103 18.1042 36.7485 18.0327 36.6849 17.9559C36.6849 17.9559 35.52 16.5651 34.9667 15.3992L34.9513 15.3668L34.8671 15.1963C34.5235 14.4464 33.9187 13.1509 33.2692 11.5368C33.0091 11.6622 32.7368 11.761 32.4565 11.8316C32.112 11.9172 31.7583 11.9608 31.4032 11.9612C30.4898 11.9592 29.6009 11.6678 28.8662 11.1294C28.1315 10.5909 27.5894 9.83365 27.3191 8.96806C27.2085 8.61182 27.1449 8.24283 27.1301 7.87035C27.1301 7.81581 27.1301 7.75956 27.1301 7.6999C27.1292 7.12226 27.2475 6.55054 27.4777 6.01996C27.7079 5.48937 28.0451 5.01115 28.4686 4.61473C28.7148 4.38574 28.9863 4.18504 29.2779 4.01645C29.5746 3.84716 29.8907 3.71382 30.2194 3.6193H30.2383C30.3448 3.58861 30.4531 3.56305 30.5631 3.54089C31.1233 3.42954 31.7003 3.42954 32.2606 3.54089L32.3603 3.56134C32.4359 3.57839 32.5097 3.59884 32.5853 3.6193C33.2555 3.80997 33.8689 4.15961 34.3724 4.63802C34.8759 5.11644 35.2544 5.70925 35.4753 6.36526C35.9621 6.80364 36.5625 7.09877 37.209 7.21752C37.9409 7.34365 37.9959 7.10843 38.9271 7.21752C39.9886 7.35721 40.9952 7.76839 41.848 8.41068C41.6126 7.31127 40.8395 4.45621 38.2399 2.44489C37.4804 1.85683 36.2004 0.895484 34.2881 0.740374C33.9977 0.716511 31.9531 0.578445 30.1644 1.76308C29.1438 2.45659 28.3164 3.3947 27.759 4.4903C27.5461 4.92848 27.3735 5.38488 27.2435 5.85391C27.1704 6.13357 27.1199 6.41855 27.0923 6.70617C27.0923 6.75048 27.0838 6.7948 27.0786 6.84082C27.0786 6.92605 27.0666 7.01127 27.0631 7.0982C27.0597 7.18514 27.0631 7.22093 27.0631 7.284C27.0449 7.96422 27.0817 8.6448 27.1731 9.31919V9.31919Z" fill="url(#paint2_linear_559_10226)"/>
</g>
<g style="mix-blend-mode:multiply" opacity="0.3">
<path d="M27.5371 10.8567C27.6661 11.7229 27.8632 12.5777 28.1264 13.4134C29.2067 16.8622 31.3644 19.8809 34.2878 22.0331C37.2111 24.1853 40.7487 25.3595 44.389 25.3859C43.3765 24.7357 42.4108 24.0164 41.499 23.2331C40.5188 22.3897 39.6002 21.4783 38.7499 20.5059C37.8462 19.4951 38.1039 19.6537 36.8702 18.1673C34.7564 18.01 32.7382 17.2292 31.0751 15.9253C29.412 14.6213 28.1799 12.8538 27.5371 10.8499V10.8567Z" fill="url(#paint3_linear_559_10226)"/>
</g>
<g style="mix-blend-mode:soft-light" opacity="0.25">
<path d="M38.8569 29.5484C39.1645 29.7904 39.4583 30.0154 39.7401 30.2302C41.075 31.2702 42.5467 32.1247 44.1146 32.7699C44.9787 33.1489 45.9197 33.3239 46.8636 33.2813C47.4444 33.2455 48.2382 33.1841 48.9254 32.5995C49.335 32.2338 49.6327 31.7613 49.7845 31.2358C50.016 30.5734 50.016 29.8529 49.7845 29.1904C49.5814 28.6464 49.2232 28.1726 48.7536 27.8268L48.4701 27.6564C47.1393 28.7156 45.5708 29.4411 43.8975 29.7716C42.2242 30.1021 40.4952 30.0279 38.8569 29.5552V29.5484Z" fill="white"/>
</g>
<path d="M6.52942 44.0179C7.10861 44.6857 7.88222 45.1591 8.74377 45.3727C9.60532 45.5864 10.5125 45.5299 11.3403 45.211C12.0356 44.92 12.6406 44.4511 13.0934 43.8521C13.5462 43.2532 13.8306 42.5457 13.9176 41.802C14.3247 39.9038 15.0545 38.0881 16.0756 36.4328C16.1048 36.3851 16.6203 35.6402 17.1185 34.9414C20.7112 29.8875 27.2403 28.6943 32.3158 25.9535C32.51 25.8376 32.7041 25.7199 32.8948 25.5989C33.4675 25.2376 34.0168 24.8586 34.5426 24.462C35.4739 23.7631 36.3493 22.9938 37.1611 22.1609C37.4257 21.8899 37.6765 21.6138 37.9274 21.3342C39.1956 20.0684 40.2544 18.6119 41.0647 17.0184C41.3386 16.4808 41.5801 15.9275 41.7881 15.3616C43.3568 11.1003 41.5905 6.91576 41.5012 6.70611C41.0785 5.71749 40.0613 3.27492 37.5494 1.76302C36.7098 1.24593 35.7756 0.898382 34.8003 0.740314C33.3878 0.543922 31.9486 0.781884 30.6767 1.42212C29.998 1.76302 28.1819 2.83175 27.4121 5.00159C27.1801 5.65879 27.0639 6.3507 27.0685 7.04701C27.2025 6.81179 28.7403 4.209 31.3639 4.14934C31.5168 4.14934 33.1886 4.13229 34.4566 5.3425C37.8174 8.55039 34.3072 16.5173 33.3364 17.9388C32.8433 18.6616 32.2213 19.3911 32.2213 19.3911C31.8433 19.8357 31.4418 20.2602 31.0186 20.6627C30.699 20.9439 30.3227 21.2541 29.8932 21.5763C29.4636 21.8984 28.9808 22.2308 28.4465 22.5581C27.2437 23.4103 25.8692 23.9217 24.4947 24.6035C21.2301 25.7966 17.9656 26.6489 14.8849 28.3534C14.2714 28.7017 13.6921 29.1063 13.1547 29.5619C12.2698 30.2437 4.43324 36.4089 5.84558 42.3168C5.98956 42.9136 6.21989 43.4866 6.52942 44.0179V44.0179Z" fill="url(#paint4_linear_559_10226)"/>
<g style="mix-blend-mode:soft-light" opacity="0.1">
<path d="M32.689 4.28406C32.7165 4.31133 32.7422 4.34031 32.7663 4.36928C33.3976 4.55977 33.9757 4.89293 34.4552 5.34256C35.5051 6.34481 35.8848 7.81069 35.8796 9.39759C36.6746 11.3907 37.0827 13.5148 37.0823 15.6583C37.0823 15.8816 37.0823 16.1031 37.0686 16.323C36.9597 19.163 36.1325 21.9303 34.6632 24.37C35.5503 23.6941 36.3853 22.9534 37.1614 22.1542C37.4237 21.8826 37.6785 21.607 37.926 21.3275C39.1942 20.0638 40.2536 18.6096 41.0651 17.0185C41.216 16.3714 41.3051 15.7117 41.3314 15.0481C41.3314 14.9117 41.3314 14.7736 41.3314 14.6356C41.3308 12.3449 40.578 10.1167 39.187 8.28831C37.7959 6.45992 35.8424 5.13085 33.6219 4.50223C33.4398 4.4511 33.2525 4.40337 33.0652 4.36076L32.8178 4.30792L32.689 4.28406Z" fill="white"/>
</g>
<g style="mix-blend-mode:soft-light" opacity="0.2">
<path d="M31.1646 4.11183C31.7199 4.13382 32.2725 4.19936 32.8174 4.30785L33.0649 4.36069C33.2521 4.4033 33.4394 4.45103 33.6215 4.50217C35.842 5.13078 37.7955 6.45985 39.1866 8.28824C40.5776 10.1166 41.3304 12.3448 41.331 14.6355C41.331 14.7736 41.331 14.9116 41.331 15.048C41.3047 15.7116 41.2156 16.3713 41.0647 17.0184C41.338 16.4809 41.5801 15.9283 41.7898 15.3633C42.6729 12.9634 42.4976 10.5907 42.1592 8.92879C40.7671 6.69085 38.5825 5.04951 36.0339 4.3266C35.8517 4.27547 35.6645 4.22774 35.4772 4.18513L35.2229 4.1374C34.5298 4.00013 33.8248 3.93105 33.1181 3.93115C32.4627 3.93077 31.8086 3.99126 31.1646 4.11183V4.11183Z" fill="white"/>
</g>
<g style="mix-blend-mode:soft-light" opacity="0.4">
<path d="M29.627 4.51585C29.7988 4.45448 29.9826 4.39823 30.1647 4.34539L30.2129 4.33176C30.4757 4.25676 30.7455 4.19199 31.017 4.13915C31.7098 4.00047 32.4149 3.93081 33.1217 3.9312C33.8273 3.93132 34.5311 4.0004 35.2231 4.13744L35.4705 4.19028C35.6578 4.2329 35.845 4.28062 36.0272 4.33176C38.5759 5.05467 40.7604 6.69601 42.1525 8.93394C42.0043 8.17631 41.784 7.43435 41.4944 6.71808C41.0471 5.57981 40.4246 4.51722 39.6491 3.56814C39.257 3.40373 38.8553 3.26257 38.4464 3.14542C38.2642 3.09428 38.077 3.04656 37.8897 3.00394L37.6285 2.94428C36.9355 2.80702 36.2305 2.73793 35.5237 2.73804C34.8169 2.73765 34.1118 2.80732 33.419 2.94599C33.1475 2.99883 32.8777 3.0636 32.6149 3.1386L32.5668 3.15224C31.5213 3.45228 30.5294 3.91236 29.627 4.51585V4.51585Z" fill="white"/>
</g>
<g style="mix-blend-mode:soft-light" opacity="0.25">
<path d="M10.9727 36.1362C10.9706 38.673 11.8947 41.1247 13.574 43.0378C13.7493 42.6449 13.8651 42.2285 13.9176 41.802C14.233 40.336 14.7401 38.9172 15.4262 37.5816C14.5473 36.3884 13.9312 35.0252 13.6177 33.5804C13.3043 32.1357 13.3005 30.6417 13.6066 29.1954V29.1954C11.9063 31.1138 10.9697 33.5817 10.9727 36.1362V36.1362Z" fill="white"/>
</g>
<g style="mix-blend-mode:soft-light" opacity="0.5">
<path d="M7.65137 35.3095C7.90722 36.9976 8.57256 38.5987 9.59016 39.9751C10.6078 41.3516 11.9472 42.4623 13.4932 43.2117C13.5218 43.1548 13.5493 43.098 13.5756 43.0412C11.896 41.1194 10.9738 38.6596 10.9795 36.116C10.9852 33.5724 11.9183 31.1167 13.6066 29.2023C13.4004 29.3625 13.2509 29.4886 13.1564 29.5619C12.6272 29.9591 9.68569 32.2704 7.65137 35.3095Z" fill="white"/>
</g>
<g style="mix-blend-mode:soft-light" opacity="0.75">
<path d="M5.84203 42.3134C5.98757 42.9113 6.21903 43.4854 6.5293 44.0179C7.10849 44.6858 7.88211 45.1591 8.74366 45.3728C9.60521 45.5865 10.5123 45.53 11.3402 45.2111C12.2779 44.8268 13.0418 44.1157 13.4879 43.2117C11.9419 42.4623 10.6025 41.3517 9.5849 39.9752C8.5673 38.5987 7.90197 36.9976 7.64611 35.3096C6.23721 37.4249 5.26128 39.8913 5.84203 42.3134Z" fill="white"/>
</g>
<path d="M20.6998 16.419C20.0263 17.9275 19.4026 18.9758 18.4662 20.5098C16.9731 22.9729 16.2325 24.2086 15.0298 25.6234C13.236 27.737 11.5746 29.0324 10.2189 30.0551C8.88376 31.0957 7.41138 31.9502 5.84274 32.5948C4.97854 32.9738 4.03754 33.1489 3.09365 33.1062C2.51291 33.0704 1.71911 33.009 1.03184 32.4244C0.622258 32.0588 0.324567 31.5862 0.172757 31.0608C-0.0577821 30.3982 -0.0577821 29.678 0.172757 29.0154C0.376523 28.4716 0.734562 27.9981 1.20366 27.6518C1.80159 27.2716 2.30673 26.9972 2.65724 26.8165C3.27406 26.4978 3.62457 26.3648 4.35995 25.9643C4.63658 25.8109 4.92695 25.6438 5.2345 25.4529C6.38498 24.745 7.47663 23.947 8.49904 23.0666C9.47879 22.2227 10.3974 21.3114 11.2481 20.3394C12.1931 19.2809 11.8684 19.5042 13.3099 17.7826C13.3099 17.7826 14.4749 16.3917 15.0281 15.2259L15.0436 15.1918L15.1278 15.0213C15.4714 14.2628 16.0882 12.9537 16.7463 11.3123C16.8803 10.9714 17.6981 8.91235 17.949 7.05102C18.0242 6.64535 17.9639 6.2264 17.7772 5.85786C17.6517 5.63725 17.4789 5.44661 17.2711 5.29937C17.0633 5.15212 16.8255 5.05185 16.5745 5.0056C15.2738 4.80788 14.7944 6.71012 12.7945 7.05102C12.0625 7.17545 12.0076 6.94193 11.0763 7.05102C10.0146 7.18995 9.00786 7.6012 8.1554 8.24418C8.39079 7.14477 9.16397 4.28971 11.7636 2.27838C12.523 1.69033 13.803 0.727276 15.7154 0.57387C16.0057 0.550007 18.0521 0.411941 19.839 1.59658C20.8596 2.29009 21.687 3.2282 22.2444 4.3238C22.4574 4.76197 22.6299 5.21837 22.7599 5.68741C22.9317 6.30615 23.2753 8.09418 22.2444 11.9941C21.8493 13.5076 21.3327 14.9872 20.6998 16.419V16.419Z" fill="url(#paint5_linear_559_10226)"/>
<g style="mix-blend-mode:multiply" opacity="0.6">
<path d="M22.875 7.53169C22.875 7.58624 22.875 7.64249 22.875 7.70214C22.8602 8.07462 22.7967 8.44362 22.686 8.79985C22.4139 9.66469 21.8704 10.4207 21.1348 10.9576C20.3992 11.4945 19.51 11.7842 18.5967 11.7845C18.2416 11.784 17.8879 11.7405 17.5435 11.6549C17.2632 11.5843 16.9909 11.4855 16.7308 11.36L16.7514 11.3106C16.8854 10.9697 17.7033 8.91064 17.9541 7.04932C18.0285 6.64363 17.9682 6.22496 17.7823 5.85616C17.6568 5.63555 17.484 5.44491 17.2762 5.29766C17.0685 5.15042 16.8307 5.05014 16.5796 5.0039C15.7669 4.88117 15.2755 5.57491 14.5332 6.19706C14.7531 5.54048 15.1308 4.94689 15.6337 4.46757C16.1367 3.98825 16.7497 3.63762 17.4198 3.44597C17.4954 3.42552 17.5693 3.40507 17.6449 3.38802L17.7445 3.36757C18.3048 3.25622 18.8818 3.25622 19.4421 3.36757C19.552 3.38973 19.6603 3.41529 19.7668 3.44597H19.7857C20.1144 3.5405 20.4306 3.67384 20.7273 3.84313C21.0188 4.01172 21.2903 4.21242 21.5365 4.44141C21.9607 4.83842 22.2983 5.31747 22.5285 5.84898C22.7587 6.3805 22.8766 6.95319 22.875 7.53169V7.53169Z" fill="url(#paint6_linear_559_10226)"/>
</g>
<g style="mix-blend-mode:multiply" opacity="0.5">
<path d="M22.8269 9.14585C22.8286 9.15256 22.8286 9.15958 22.8269 9.1663C22.749 9.66155 22.6341 10.1504 22.4833 10.6288C21.8498 12.6462 20.6194 14.4279 18.952 15.7426C17.2845 17.0573 15.257 17.8441 13.133 18.0008C13.1897 17.9309 13.2515 17.8593 13.3151 17.7826C13.3151 17.7826 14.48 16.3917 15.0333 15.2258L15.0487 15.1935L15.1329 15.023C15.4765 14.273 16.0813 12.9776 16.7308 11.3634C16.9909 11.4889 17.2632 11.5877 17.5435 11.6583C17.888 11.7439 18.2417 11.7874 18.5968 11.7878C19.5102 11.7859 20.3991 11.4945 21.1338 10.956C21.8685 10.4176 22.4106 9.66031 22.6809 8.79472C22.7915 8.43848 22.8551 8.06949 22.8699 7.69701C22.8699 7.64247 22.8699 7.58622 22.8699 7.52656C22.8708 6.94892 22.7525 6.3772 22.5223 5.84662C22.2921 5.31603 21.9549 4.83781 21.5314 4.44139C21.2852 4.2124 21.0137 4.0117 20.7221 3.84311C20.4254 3.67382 20.1093 3.54048 19.7806 3.44596H19.7617C19.6551 3.41527 19.5469 3.38971 19.4369 3.36755C18.8767 3.2562 18.2997 3.2562 17.7394 3.36755L17.6397 3.388C17.5641 3.40505 17.4903 3.4255 17.4147 3.44596C16.7445 3.63663 16.1311 3.98627 15.6276 4.46468C15.1241 4.9431 14.7456 5.53591 14.5247 6.19193C14.0379 6.63031 13.4375 6.92543 12.791 7.04418C12.0591 7.17032 12.0041 6.93509 11.0729 7.04418C10.0114 7.18387 9.00482 7.59505 8.15196 8.23734C8.38735 7.13793 9.16053 4.28287 11.7601 2.27155C12.5196 1.68349 13.7996 0.722145 15.7119 0.567034C16.0023 0.543171 18.0469 0.405105 19.8356 1.58974C20.8562 2.28325 21.6836 3.22136 22.241 4.31696C22.4539 4.75514 22.6265 5.21154 22.7565 5.68057C22.8296 5.96023 22.8801 6.24521 22.9077 6.53283C22.9077 6.57715 22.9162 6.62146 22.9214 6.66748C22.9214 6.75271 22.9334 6.83794 22.9369 6.92487C22.9403 7.0118 22.9369 7.04759 22.9369 7.11066C22.9551 7.79088 22.9183 8.47146 22.8269 9.14585V9.14585Z" fill="url(#paint7_linear_559_10226)"/>
</g>
<g style="mix-blend-mode:multiply" opacity="0.3">
<path d="M22.4629 10.6833C22.3339 11.5495 22.1368 12.4044 21.8736 13.2401C20.7933 16.6889 18.6356 19.7076 15.7122 21.8598C12.7889 24.012 9.25133 25.1861 5.61102 25.2126C6.62352 24.5624 7.58918 23.843 8.50099 23.0598C9.48116 22.2163 10.3998 21.305 11.2501 20.3326C12.1538 19.3218 11.8961 19.4803 13.1298 17.994C15.2436 17.8367 17.2618 17.0559 18.9249 15.7519C20.588 14.448 21.8201 12.6805 22.4629 10.6765V10.6833Z" fill="url(#paint8_linear_559_10226)"/>
</g>
<g style="mix-blend-mode:soft-light" opacity="0.25">
<path d="M11.1436 29.375C10.836 29.6171 10.5422 29.8421 10.2604 30.0568C8.92551 31.0969 7.45377 31.9514 5.88593 32.5966C5.02174 32.9755 4.08074 33.1506 3.13685 33.1079C2.55611 33.0721 1.76231 33.0108 1.07504 32.4261C0.665455 32.0605 0.367762 31.588 0.215952 31.0625C-0.0155194 30.4 -0.0155194 29.6796 0.215952 29.0171C0.419106 28.473 0.777267 27.9993 1.24686 27.6535L1.53036 27.483C2.86119 28.5422 4.42964 29.2678 6.10297 29.5983C7.7763 29.9288 9.50527 29.8546 11.1436 29.3819V29.375Z" fill="white"/>
</g>
<path d="M43.4706 43.8445C42.8914 44.5124 42.1178 44.9857 41.2562 45.1994C40.3947 45.4131 39.4875 45.3566 38.6597 45.0377C37.9644 44.7467 37.3594 44.2777 36.9066 43.6788C36.4538 43.0798 36.1694 42.3724 36.0824 41.6287C35.6753 39.7305 34.9455 37.9148 33.9244 36.2595C33.8952 36.2117 33.3797 35.4669 32.8815 34.768C29.2888 29.7141 22.7597 28.521 17.6842 25.7801C17.49 25.6642 17.2959 25.5466 17.1052 25.4256C16.5324 25.0642 15.9832 24.6853 15.4574 24.2887C14.5261 23.5898 13.6506 22.8205 12.8389 21.9876C12.5743 21.7166 12.3235 21.4404 12.0726 21.1609C10.8044 19.895 9.74557 18.4385 8.93524 16.8451C8.66142 16.3074 8.41988 15.7542 8.21188 15.1883C6.64319 10.927 8.40948 6.74242 8.49882 6.53277C8.92149 5.54415 9.93865 3.10158 12.4506 1.58968C13.2902 1.07259 14.2244 0.725042 15.1997 0.566974C16.6122 0.370582 18.0514 0.608544 19.3233 1.24878C20.002 1.58968 21.8181 2.65841 22.5879 4.82825C22.8199 5.48545 22.9361 6.17736 22.9315 6.87367C22.7975 6.63845 21.2597 4.03566 18.6361 3.976C18.4831 3.976 16.8114 3.95895 15.5433 5.16916C12.1826 8.37705 15.6928 16.3439 16.6636 17.7655C17.1567 18.4882 17.7787 19.2177 17.7787 19.2177C18.1567 19.6624 18.5582 20.0868 18.9814 20.4893C19.301 20.7706 19.6773 21.0808 20.1068 21.4029C20.5364 21.7251 21.0192 22.0575 21.5535 22.3847C22.7562 23.237 24.1308 23.7483 25.5053 24.4302C28.7699 25.6233 32.0344 26.4756 35.1151 28.1801C35.7286 28.5284 36.3079 28.933 36.8453 29.3886C37.7302 30.0704 45.5668 36.2356 44.1544 42.1434C44.0104 42.7403 43.7801 43.3132 43.4706 43.8445V43.8445Z" fill="url(#paint9_linear_559_10226)"/>
<g style="mix-blend-mode:soft-light" opacity="0.4">
<path d="M20.3735 4.34251C20.2017 4.28114 20.0179 4.22489 19.8357 4.17205L19.7876 4.15842C19.5248 4.08342 19.255 4.01865 18.9835 3.96581C18.2907 3.82713 17.5856 3.75747 16.8788 3.75786C16.1732 3.75798 15.4693 3.82706 14.7774 3.9641L14.53 4.01694C14.3427 4.05956 14.1555 4.10728 13.9733 4.15842C11.4246 4.88133 9.24009 6.52267 7.84803 8.7606C7.99614 8.00297 8.21649 7.26102 8.50609 6.54474C8.95344 5.40648 9.57594 4.34388 10.3514 3.3948C10.7435 3.23039 11.1451 3.08923 11.5541 2.97208C11.7363 2.92094 11.9235 2.87322 12.1108 2.8306L12.372 2.77094C13.065 2.63368 13.77 2.56459 14.4768 2.5647C15.1836 2.56431 15.8887 2.63398 16.5815 2.77265C16.853 2.82549 17.1227 2.89026 17.3856 2.96526L17.4337 2.9789C18.4792 3.27894 19.4711 3.73902 20.3735 4.34251V4.34251Z" fill="white"/>
</g>
<g style="mix-blend-mode:soft-light" opacity="0.1">
<path d="M17.3115 4.1106C17.284 4.13787 17.2583 4.16684 17.2342 4.19582C16.6029 4.38631 16.0248 4.71946 15.5452 5.1691C14.4954 6.17135 14.1157 7.63723 14.1209 9.22413C13.3259 11.2172 12.9178 13.3414 12.9181 15.4848C12.9181 15.7081 12.9181 15.9297 12.9319 16.1496C13.0408 18.9896 13.8679 21.7568 15.3373 24.1966C14.4502 23.5206 13.6152 22.7799 12.8391 21.9807C12.5768 21.7091 12.3219 21.4336 12.0745 21.154C10.8063 19.8904 9.74688 18.4362 8.93541 16.845C8.78454 16.1979 8.69537 15.5382 8.6691 14.8746C8.6691 14.7382 8.6691 14.6002 8.6691 14.4621C8.66969 12.1714 9.42248 9.94323 10.8135 8.11485C12.2046 6.28646 14.1581 4.95738 16.3786 4.32877C16.5607 4.27764 16.748 4.22991 16.9352 4.1873L17.1827 4.13446L17.3115 4.1106Z" fill="white"/>
</g>
<g style="mix-blend-mode:soft-light" opacity="0.2">
<path d="M18.8359 3.93849C18.2806 3.96048 17.7279 4.02602 17.1831 4.13451L16.9356 4.18735C16.7484 4.22996 16.5611 4.27769 16.3789 4.32883C14.1585 4.95744 12.205 6.28651 10.8139 8.1149C9.42288 9.94328 8.67009 12.1714 8.66949 14.4622C8.66949 14.6002 8.66949 14.7383 8.66949 14.8746C8.69577 15.5383 8.78493 16.198 8.93581 16.8451C8.66246 16.3076 8.42038 15.755 8.21074 15.19C7.3276 12.79 7.50285 10.4173 7.84133 8.75545C9.2334 6.51751 11.4179 4.87617 13.9666 4.15326C14.1488 4.10213 14.336 4.0544 14.5233 4.01179L14.7776 3.96406C15.4706 3.82679 16.1757 3.75771 16.8824 3.75781C17.5378 3.75743 18.1919 3.81792 18.8359 3.93849V3.93849Z" fill="white"/>
</g>
<g style="mix-blend-mode:soft-light" opacity="0.1">
<path d="M22.9336 6.85322C22.2979 5.47404 21.3704 4.24675 20.2142 3.25472C19.0579 2.26268 17.7 1.52913 16.2327 1.1039V1.1039L16.1846 1.09026C15.9217 1.01526 15.6519 0.950489 15.3804 0.897649C15.054 0.832878 14.7224 0.781742 14.3856 0.747652C14.653 0.668342 14.9257 0.607964 15.2018 0.566974C16.6142 0.370582 18.0535 0.608544 19.3254 1.24878C20.0041 1.58968 21.8202 2.65841 22.5899 4.82825C22.8199 5.47889 22.9361 6.16374 22.9336 6.85322Z" fill="white"/>
</g>
<g style="mix-blend-mode:soft-light" opacity="0.25">
<path d="M39.0273 35.9629C39.0294 38.4997 38.1053 40.9513 36.426 42.8644C36.2507 42.4716 36.1349 42.0551 36.0824 41.6287C35.767 40.1627 35.2599 38.7439 34.5738 37.4083C35.4527 36.215 36.0688 34.8518 36.3823 33.4071C36.6957 31.9624 36.6995 30.4684 36.3934 29.0221V29.0221C38.0937 30.9405 39.0303 33.4083 39.0273 35.9629V35.9629Z" fill="white"/>
</g>
<g style="mix-blend-mode:soft-light" opacity="0.5">
<path d="M42.3486 35.1362C42.0928 36.8242 41.4274 38.4253 40.4098 39.8018C39.3922 41.1783 38.0528 42.289 36.5068 43.0383C36.4782 42.9815 36.4507 42.9247 36.4244 42.8679C38.104 40.9461 39.0262 38.4863 39.0205 35.9427C39.0148 33.399 38.0817 30.9433 36.3934 29.0289C36.5996 29.1892 36.7491 29.3153 36.8436 29.3886C37.3728 29.7857 40.3143 32.0971 42.3486 35.1362Z" fill="white"/>
</g>
<g style="mix-blend-mode:soft-light" opacity="0.75">
<path d="M44.158 42.1401C44.0124 42.738 43.781 43.312 43.4707 43.8446C42.8915 44.5124 42.1179 44.9858 41.2563 45.1994C40.3948 45.4131 39.4877 45.3566 38.6598 45.0377C37.7221 44.6534 36.9582 43.9424 36.5121 43.0384C38.0581 42.289 39.3975 41.1783 40.4151 39.8018C41.4327 38.4253 42.098 36.8242 42.3539 35.1362C43.7628 37.2515 44.7387 39.718 44.158 42.1401Z" fill="white"/>
</g>
<g style="mix-blend-mode:soft-light" opacity="0.7">
<path d="M31.2328 26.5147C29.2689 27.4573 27.1521 28.2431 25.1075 29.1533C23.0594 28.2465 20.9409 27.4573 18.9805 26.5096C20.8413 25.8125 22.7398 25.2346 24.6367 24.5409C24.7948 24.4625 24.9511 24.3875 25.1092 24.3125C25.2965 24.3994 25.4855 24.483 25.6728 24.5835C27.537 25.2653 29.4029 25.8346 31.2328 26.5147Z" fill="url(#paint10_linear_559_10226)"/>
</g>
<g style="mix-blend-mode:soft-light" opacity="0.5">
<path fill-rule="evenodd" clip-rule="evenodd" d="M41.2523 45.1994C42.1139 44.9857 42.8875 44.5124 43.4667 43.8445C43.7762 43.3132 44.0065 42.7403 44.1505 42.1434C45.5629 36.2356 37.7263 30.0704 36.8414 29.3886C36.304 28.933 35.7247 28.5284 35.1112 28.1801C32.8672 26.9385 30.5257 26.1491 28.1578 25.3508C27.2748 25.0531 26.3881 24.7542 25.5014 24.4302C25.1046 24.2333 24.7078 24.0507 24.3151 23.87C23.3476 23.4247 22.4051 22.991 21.5496 22.3847C21.0153 22.0575 20.5325 21.7251 20.1029 21.4029C19.6734 21.0808 19.2971 20.7706 18.9775 20.4893C18.5543 20.0868 18.1528 19.6624 17.7748 19.2178C17.7748 19.2178 17.1528 18.4882 16.6597 17.7655C15.6889 16.3439 12.1787 8.37705 15.5395 5.16916C16.792 3.97376 18.4384 3.97577 18.6259 3.97599L18.6322 3.976C21.2558 4.03566 22.7936 6.63845 22.9276 6.87367C22.9322 6.17736 22.816 5.48545 22.584 4.82826C21.8142 2.65841 19.9981 1.58968 19.3194 1.24878C18.0475 0.608544 16.6083 0.370582 15.1958 0.566974C14.2205 0.725042 13.2863 1.07259 12.4467 1.58968C9.96957 3.08063 8.94608 5.47663 8.51285 6.49084L8.49493 6.53277C8.40559 6.74242 6.6393 10.927 8.208 15.1883C8.41599 15.7542 8.65753 16.3074 8.93135 16.8451C9.74168 18.4385 10.8005 19.895 12.0687 21.1609C12.3196 21.4404 12.5704 21.7166 12.835 21.9876C13.6468 22.8205 14.5222 23.5898 15.4535 24.2887C15.9793 24.6853 16.5286 25.0642 17.1013 25.4256C17.292 25.5466 17.4861 25.6642 17.6803 25.7801C19.1901 26.5955 20.8286 27.2738 22.4801 27.9576C26.3804 29.5725 30.3536 31.2175 32.8776 34.768C33.3758 35.4669 33.8913 36.2117 33.9205 36.2595C34.9416 37.9148 35.6714 39.7305 36.0785 41.6287C36.1655 42.3724 36.4499 43.0798 36.9027 43.6788C37.3555 44.2777 37.9605 44.7467 38.6558 45.0377C39.4836 45.3566 40.3908 45.4131 41.2523 45.1994ZM19.8314 4.172C20.0136 4.22484 20.1974 4.28109 20.3692 4.34245C19.4668 3.73896 18.4749 3.27889 17.4294 2.97884L17.3813 2.9652C17.1184 2.8902 16.8487 2.82543 16.5772 2.77259C15.8844 2.63392 15.1793 2.56426 14.4724 2.56464C13.7657 2.56454 13.0607 2.63362 12.3677 2.77089L12.1065 2.83055C11.9192 2.87316 11.732 2.92089 11.5498 2.97202C11.1408 3.08918 10.7392 3.23033 10.3471 3.39474C9.57164 4.34382 8.94914 5.40642 8.50179 6.54468C8.21219 7.26096 7.99184 8.00291 7.84372 8.76055C9.23579 6.52261 11.4203 4.88127 13.969 4.15836C14.1512 4.10723 14.3384 4.0595 14.5257 4.01689L14.7731 3.96405C15.465 3.827 16.1689 3.75792 16.8745 3.7578C17.5813 3.75742 18.2864 3.82708 18.9792 3.96575C19.2507 4.01859 19.5205 4.08336 19.7833 4.15836L19.8314 4.172Z" fill="white"/>
</g>
<g style="mix-blend-mode:soft-light" opacity="0.5">
<path fill-rule="evenodd" clip-rule="evenodd" d="M8.73987 45.3703C7.87832 45.1566 7.1047 44.6833 6.52551 44.0154C6.21598 43.4841 5.98565 42.9112 5.84168 42.3143C4.42933 36.4065 12.2659 30.2413 13.1508 29.5595C13.6882 29.1039 14.2675 28.6993 14.881 28.351C17.125 27.1094 19.4665 26.32 21.8344 25.5217C22.7174 25.224 23.6041 24.9251 24.4908 24.601C24.8876 24.4042 25.2844 24.2216 25.6771 24.0409C26.6446 23.5956 27.5871 23.1619 28.4426 22.5556C28.9769 22.2284 29.4597 21.896 29.8893 21.5738C30.3188 21.2517 30.6951 20.9415 31.0147 20.6602C31.4379 20.2577 31.8394 19.8333 32.2174 19.3886C32.2174 19.3886 32.8394 18.6591 33.3325 17.9364C34.3033 16.5148 37.8135 8.54795 34.4527 5.34006C33.2002 4.14466 31.5538 4.14666 31.3663 4.14689L31.36 4.1469C28.7364 4.20656 27.1986 6.80935 27.0646 7.04457C27.06 6.34825 27.1762 5.65635 27.4082 4.99915C28.178 2.82931 29.9941 1.76058 30.6728 1.41968C31.9447 0.779443 33.3839 0.541481 34.7964 0.737872C35.7717 0.89594 36.7059 1.24349 37.5455 1.76058C40.0226 3.25153 41.0461 5.64753 41.4794 6.66174L41.4973 6.70367C41.5866 6.91332 43.3529 11.0979 41.7842 15.3592C41.5762 15.9251 41.3347 16.4783 41.0609 17.016C40.2505 18.6094 39.1917 20.0659 37.9235 21.3318C37.6726 21.6113 37.4218 21.8875 37.1572 22.1585C36.3454 22.9914 35.47 23.7607 34.5387 24.4596C34.0129 24.8562 33.4636 25.2351 32.8909 25.5965C32.7002 25.7175 32.5061 25.8351 32.3119 25.951C30.8021 26.7663 29.1636 27.4447 27.5121 28.1285C23.6118 29.7434 19.6386 31.3884 17.1146 34.9389C16.6164 35.6378 16.1009 36.3826 16.0717 36.4304C15.0506 38.0857 14.3208 39.9014 13.9137 41.7996C13.8267 42.5433 13.5423 43.2507 13.0895 43.8497C12.6367 44.4486 12.0317 44.9176 11.3364 45.2086C10.5086 45.5275 9.60142 45.584 8.73987 45.3703ZM30.1607 4.3429C29.9786 4.39574 29.7948 4.45198 29.623 4.51335C30.5254 3.90986 31.5173 3.44979 32.5628 3.14974L32.6109 3.1361C32.8737 3.0611 33.1435 2.99633 33.415 2.94349C34.1078 2.80482 34.8129 2.73516 35.5197 2.73554C36.2265 2.73544 36.9315 2.80452 37.6245 2.94179L37.8857 3.00144C38.073 3.04406 38.2602 3.09178 38.4424 3.14292C38.8513 3.26007 39.253 3.40123 39.6451 3.56564C40.4206 4.51472 41.0431 5.57732 41.4904 6.71558C41.78 7.43186 42.0004 8.17381 42.1485 8.93144C40.7564 6.69351 38.5719 5.05217 36.0232 4.32926C35.841 4.27812 35.6538 4.2304 35.4665 4.18779L35.2191 4.13495C34.5271 3.9979 33.8233 3.92882 33.1177 3.9287C32.4109 3.92831 31.7058 3.99798 31.013 4.13665C30.7415 4.18949 30.4717 4.25426 30.2089 4.32926L30.1607 4.3429Z" fill="white"/>
</g>
<defs>
<linearGradient id="paint0_linear_559_10226" x1="38.5223" y1="0.730103" x2="38.5223" y2="33.2858" gradientUnits="userSpaceOnUse">
<stop stop-color="#5EA5F0"/>
<stop offset="1" stop-color="#5947D2"/>
<stop offset="1" stop-color="#9225FF"/>
</linearGradient>
<linearGradient id="paint1_linear_559_10226" x1="31.2959" y1="3.4574" x2="31.2959" y2="11.9578" gradientUnits="userSpaceOnUse">
<stop stop-color="#5EA5F0"/>
<stop offset="1" stop-color="#5947D2"/>
<stop offset="1" stop-color="#9225FF"/>
</linearGradient>
<linearGradient id="paint2_linear_559_10226" x1="34.4533" y1="0.723267" x2="34.4533" y2="18.1741" gradientUnits="userSpaceOnUse">
<stop stop-color="#5EA5F0"/>
<stop offset="1" stop-color="#5947D2"/>
<stop offset="1" stop-color="#9225FF"/>
</linearGradient>
<linearGradient id="paint3_linear_559_10226" x1="35.963" y1="10.8499" x2="35.963" y2="25.3859" gradientUnits="userSpaceOnUse">
<stop stop-color="#5EA5F0"/>
<stop offset="1" stop-color="#5947D2"/>
<stop offset="1" stop-color="#9225FF"/>
</linearGradient>
<linearGradient id="paint4_linear_559_10226" x1="24.0554" y1="0.67334" x2="24.0554" y2="45.5" gradientUnits="userSpaceOnUse">
<stop stop-color="#5EA5F0"/>
<stop offset="1" stop-color="#5947D2"/>
<stop offset="1" stop-color="#9225FF"/>
</linearGradient>
<linearGradient id="paint5_linear_559_10226" x1="11.4777" y1="0.556763" x2="11.4777" y2="33.1125" gradientUnits="userSpaceOnUse">
<stop stop-color="#5EA5F0"/>
<stop offset="1" stop-color="#5947D2"/>
<stop offset="1" stop-color="#9225FF"/>
</linearGradient>
<linearGradient id="paint6_linear_559_10226" x1="18.7041" y1="3.28406" x2="18.7041" y2="11.7845" gradientUnits="userSpaceOnUse">
<stop stop-color="#5EA5F0"/>
<stop offset="1" stop-color="#5947D2"/>
<stop offset="1" stop-color="#9225FF"/>
</linearGradient>
<linearGradient id="paint7_linear_559_10226" x1="15.5467" y1="0.549927" x2="15.5467" y2="18.0008" gradientUnits="userSpaceOnUse">
<stop stop-color="#5EA5F0"/>
<stop offset="1" stop-color="#5947D2"/>
<stop offset="1" stop-color="#9225FF"/>
</linearGradient>
<linearGradient id="paint8_linear_559_10226" x1="14.037" y1="10.6765" x2="14.037" y2="25.2126" gradientUnits="userSpaceOnUse">
<stop stop-color="#5EA5F0"/>
<stop offset="1" stop-color="#5947D2"/>
<stop offset="1" stop-color="#9225FF"/>
</linearGradient>
<linearGradient id="paint9_linear_559_10226" x1="25.9446" y1="0.5" x2="25.9446" y2="45.3266" gradientUnits="userSpaceOnUse">
<stop stop-color="#5EA5F0"/>
<stop offset="1" stop-color="#5947D2"/>
<stop offset="1" stop-color="#9225FF"/>
</linearGradient>
<linearGradient id="paint10_linear_559_10226" x1="25.1066" y1="24.3125" x2="25.1066" y2="29.1533" gradientUnits="userSpaceOnUse">
<stop stop-color="#5EA5F0"/>
<stop offset="1" stop-color="#5947D2"/>
<stop offset="1" stop-color="#9225FF"/>
</linearGradient>
</defs>
</svg>
