<svg width="33" height="48" viewBox="0 0 33 48" fill="none" xmlns="http://www.w3.org/2000/svg">
<circle cx="16.5639" cy="4.56393" r="4.56393" fill="url(#paint0_linear_1565_22931)"/>
<path d="M23.2957 19.4634H9.96232C6.83271 19.4634 4.29565 22.0004 4.29565 25.13V38.4634C4.29565 41.593 6.83271 44.13 9.96232 44.13H23.2957C26.4253 44.13 28.9623 41.593 28.9623 38.4634V25.13C28.9623 22.0004 26.4253 19.4634 23.2957 19.4634Z" stroke="url(#paint1_linear_1565_22931)" stroke-width="1.71148"/>
<path d="M11.6289 31.4633V37.4633" stroke="url(#paint2_linear_1565_22931)" stroke-width="1.71148" stroke-linecap="round"/>
<path d="M16.9624 26.13V37.4633" stroke="url(#paint3_linear_1565_22931)" stroke-width="1.71148" stroke-linecap="round"/>
<path d="M22.2957 30.13V37.4633" stroke="url(#paint4_linear_1565_22931)" stroke-width="1.71148" stroke-linecap="round"/>
<defs>
<linearGradient id="paint0_linear_1565_22931" x1="16.5639" y1="0" x2="16.5639" y2="9.12787" gradientUnits="userSpaceOnUse">
<stop stop-color="#8490FF"/>
<stop offset="1" stop-color="#6C75E4"/>
</linearGradient>
<linearGradient id="paint1_linear_1565_22931" x1="16.629" y1="19.4634" x2="16.629" y2="44.13" gradientUnits="userSpaceOnUse">
<stop stop-color="#8490FF"/>
<stop offset="1" stop-color="#6C75E4"/>
</linearGradient>
<linearGradient id="paint2_linear_1565_22931" x1="12.1289" y1="31.4633" x2="12.1289" y2="37.4633" gradientUnits="userSpaceOnUse">
<stop stop-color="#8490FF"/>
<stop offset="1" stop-color="#6C75E4"/>
</linearGradient>
<linearGradient id="paint3_linear_1565_22931" x1="17.4624" y1="26.13" x2="17.4624" y2="37.4633" gradientUnits="userSpaceOnUse">
<stop stop-color="#8490FF"/>
<stop offset="1" stop-color="#6C75E4"/>
</linearGradient>
<linearGradient id="paint4_linear_1565_22931" x1="22.7957" y1="30.13" x2="22.7957" y2="37.4633" gradientUnits="userSpaceOnUse">
<stop stop-color="#8490FF"/>
<stop offset="1" stop-color="#6C75E4"/>
</linearGradient>
</defs>
</svg>
