<svg width="32" height="32" viewBox="0 0 32 32" fill="none" xmlns="http://www.w3.org/2000/svg">
<path fill-rule="evenodd" clip-rule="evenodd" d="M24.6667 15.9512C24.6667 16.5035 24.219 16.9512 23.6667 16.9512L7.66675 16.9512C7.11446 16.9512 6.66675 16.5035 6.66675 15.9512C6.66675 15.3989 7.11446 14.9512 7.66675 14.9512L23.6667 14.9512C24.219 14.9512 24.6667 15.3989 24.6667 15.9512Z" fill="#8184BF"/>
<path fill-rule="evenodd" clip-rule="evenodd" d="M14.0892 9.52873C14.4797 9.91926 14.4797 10.5524 14.0892 10.9429L9.08086 15.9513L14.0892 20.9596C14.4797 21.3501 14.4797 21.9833 14.0892 22.3738C13.6987 22.7643 13.0655 22.7643 12.675 22.3738L6.95954 16.6584C6.56902 16.2678 6.56902 15.6347 6.95954 15.2442L12.675 9.52873C13.0655 9.13821 13.6987 9.13821 14.0892 9.52873Z" fill="#8184BF"/>
</svg>
