<svg width="33" height="33" viewBox="0 0 33 33" fill="none" xmlns="http://www.w3.org/2000/svg">
<path d="M23.2957 4.46338H9.96232C6.83271 4.46338 4.29565 7.00043 4.29565 10.13V23.4634C4.29565 26.593 6.83271 29.13 9.96232 29.13H23.2957C26.4253 29.13 28.9623 26.593 28.9623 23.4634V10.13C28.9623 7.00043 26.4253 4.46338 23.2957 4.46338Z" stroke="#DFD8F3" stroke-opacity="0.5" stroke-width="1.71148"/>
<path d="M22 12L19.2222 19.2222L12 22L14.7778 14.7778L22 12ZM17 18.1111C17.2947 18.1111 17.5773 17.994 17.7857 17.7857C17.994 17.5773 18.1111 17.2947 18.1111 17C18.1111 16.7053 17.994 16.4227 17.7857 16.2143C17.5773 16.006 17.2947 15.8889 17 15.8889C16.7053 15.8889 16.4227 16.006 16.2143 16.2143C16.006 16.4227 15.8889 16.7053 15.8889 17C15.8889 17.2947 16.006 17.5773 16.2143 17.7857C16.4227 17.994 16.7053 18.1111 17 18.1111Z" fill="#DFD8F3" fill-opacity="0.5"/>
</svg>
