<svg width="37" height="37" viewBox="0 0 37 37" fill="none" xmlns="http://www.w3.org/2000/svg">
<path d="M14.4184 6.16053L8.33314 11.1048C7.22829 12.0025 6.67585 12.4513 6.38052 13.0718C6.0852 13.6923 6.08521 14.4041 6.08521 15.8277V21.2984C6.08521 27.0356 6.0852 29.9043 7.86753 31.6866C9.64987 33.4689 12.5185 33.4689 18.2557 33.4689C23.9929 33.4689 26.8616 33.4689 28.6438 31.6866C30.4262 29.9043 30.4262 27.0356 30.4262 21.2984V15.8277C30.4262 14.4041 30.4262 13.6923 30.1309 13.0718C29.8355 12.4513 29.2831 12.0025 28.1783 11.1048L22.0931 6.16053C20.255 4.66712 19.336 3.92041 18.2557 3.92041C17.1754 3.92041 16.2564 4.66712 14.4184 6.16053Z" stroke="url(#paint0_linear_1041_22686)" stroke-width="2"/>
<path d="M14.8328 24.7214H21.6787" stroke="url(#paint1_linear_1041_22686)" stroke-width="2" stroke-linecap="round"/>
<defs>
<linearGradient id="paint0_linear_1041_22686" x1="18.2557" y1="3.92041" x2="18.2557" y2="33.4689" gradientUnits="userSpaceOnUse">
<stop stop-color="#8490FF"/>
<stop offset="1" stop-color="#6C75E4"/>
</linearGradient>
<linearGradient id="paint1_linear_1041_22686" x1="18.2557" y1="24.7214" x2="18.2557" y2="25.7214" gradientUnits="userSpaceOnUse">
<stop stop-color="#8490FF"/>
<stop offset="1" stop-color="#6C75E4"/>
</linearGradient>
</defs>
</svg>
