<svg width="23" height="25" viewBox="0 0 23 25" fill="none" xmlns="http://www.w3.org/2000/svg">
<path fill-rule="evenodd" clip-rule="evenodd" d="M3.25 11.6387C3.25 6.92365 6.79913 3.25 11 3.25C15.2009 3.25 18.75 6.92365 18.75 11.6387C18.75 16.3538 15.2009 20.0274 11 20.0274C6.79913 20.0274 3.25 16.3538 3.25 11.6387ZM11 0.75C5.25974 0.75 0.75 5.70715 0.75 11.6387C0.75 17.5703 5.25974 22.5274 11 22.5274C13.151 22.5274 15.1292 21.8314 16.762 20.6488L20.2201 24.3427C20.6919 24.8466 21.4829 24.8727 21.9869 24.4009C22.4909 23.9291 22.5169 23.1381 22.0451 22.6341L18.596 18.9498C20.2515 17.0052 21.25 14.4298 21.25 11.6387C21.25 5.70715 16.7403 0.75 11 0.75Z" fill="url(#paint0_linear_1583_22941)"/>
<defs>
<linearGradient id="paint0_linear_1583_22941" x1="11.5663" y1="0.75" x2="11.5663" y2="24.7384" gradientUnits="userSpaceOnUse">
<stop stop-color="#8490FF"/>
<stop offset="1" stop-color="#6C75E4"/>
</linearGradient>
</defs>
</svg>
