<svg width="30" height="48" viewBox="0 0 30 48" fill="none" xmlns="http://www.w3.org/2000/svg">
<circle cx="14.5639" cy="4.56393" r="4.56393" fill="url(#paint0_linear_1565_22930)"/>
<path d="M28.6364 32.9227V28.7062C28.6364 27.2764 27.5274 26.1136 26.1262 26.0009L22.2104 19.1614C21.8475 18.5288 21.2616 18.0767 20.5604 17.889C19.8626 17.7025 19.1329 17.8005 18.5083 18.164L5.08487 25.9789H2.72729C1.22318 25.9789 0 27.202 0 28.7062V45.0698C0 46.5739 1.22312 47.7971 2.72729 47.7971H25.9091C27.4132 47.7971 28.6364 46.574 28.6364 45.0698V40.8533C29.4283 40.5709 30 39.8212 30 38.9334V34.8425C30 33.9548 29.4283 33.2051 28.6364 32.9227ZM24.5416 25.9789H18.5989L23.056 23.384L24.5416 25.9789ZM22.3785 22.2006L15.8887 25.9789H13.1969L21.7054 21.0251L22.3785 22.2006ZM19.1948 19.3425C19.5031 19.162 19.8633 19.1141 20.2075 19.206C20.5558 19.2992 20.8461 19.5243 21.0265 19.8392L21.0279 19.8417L10.4868 25.9789H7.79509L19.1948 19.3425ZM27.2727 45.0698C27.2727 45.8215 26.6608 46.4334 25.9091 46.4334H2.72729C1.97559 46.4334 1.36368 45.8215 1.36368 45.0698V28.7062C1.36368 27.9545 1.97559 27.3426 2.72729 27.3426H25.9091C26.6608 27.3426 27.2727 27.9545 27.2727 28.7062V32.7971H23.1818C20.9259 32.7971 19.0909 34.6321 19.0909 36.888C19.0909 39.1439 20.9259 40.9789 23.1818 40.9789H27.2727V45.0698V45.0698ZM28.6364 38.9334C28.6364 39.3096 28.3308 39.6153 27.9545 39.6153H23.1818C21.6777 39.6153 20.4545 38.3921 20.4545 36.888C20.4545 35.3839 21.6776 34.1607 23.1818 34.1607H27.9545C28.3307 34.1607 28.6364 34.4663 28.6364 34.8425V38.9334V38.9334Z" fill="url(#paint1_linear_1565_22930)"/>
<path d="M23.182 35.5247C22.4303 35.5247 21.8184 36.1366 21.8184 36.8883C21.8184 37.64 22.4303 38.2519 23.182 38.2519C23.9337 38.2519 24.5456 37.64 24.5456 36.8883C24.5457 36.1366 23.9337 35.5247 23.182 35.5247Z" fill="url(#paint2_linear_1565_22930)"/>
<defs>
<linearGradient id="paint0_linear_1565_22930" x1="14.5639" y1="0" x2="14.5639" y2="9.12787" gradientUnits="userSpaceOnUse">
<stop stop-color="#8490FF"/>
<stop offset="1" stop-color="#6C75E4"/>
</linearGradient>
<linearGradient id="paint1_linear_1565_22930" x1="15" y1="17.7966" x2="15" y2="47.7971" gradientUnits="userSpaceOnUse">
<stop stop-color="#8490FF"/>
<stop offset="1" stop-color="#6C75E4"/>
</linearGradient>
<linearGradient id="paint2_linear_1565_22930" x1="23.182" y1="35.5247" x2="23.182" y2="38.2519" gradientUnits="userSpaceOnUse">
<stop stop-color="#8490FF"/>
<stop offset="1" stop-color="#6C75E4"/>
</linearGradient>
</defs>
</svg>
