<svg width="30" height="31" viewBox="0 0 30 31" fill="none" xmlns="http://www.w3.org/2000/svg">
<path d="M28.6364 15.9227V11.7062C28.6364 10.2764 27.5274 9.11362 26.1262 9.00087L22.2104 2.16139C21.8475 1.52883 21.2616 1.07673 20.5604 0.888992C19.8626 0.702536 19.1329 0.800462 18.5083 1.16398L5.08487 8.97888H2.72729C1.22318 8.97888 0 10.202 0 11.7062V28.0698C0 29.5739 1.22312 30.7971 2.72729 30.7971H25.9091C27.4132 30.7971 28.6364 29.574 28.6364 28.0698V23.8533C29.4283 23.5709 30 22.8212 30 21.9334V17.8425C30 16.9548 29.4283 16.2051 28.6364 15.9227ZM24.5416 8.97888H18.5989L23.056 6.38397L24.5416 8.97888ZM22.3785 5.20061L15.8887 8.97888H13.1969L21.7054 4.02505L22.3785 5.20061ZM19.1948 2.34248C19.5031 2.16203 19.8633 2.11409 20.2075 2.20601C20.5558 2.2992 20.8461 2.52427 21.0265 2.8392L21.0279 2.84169L10.4868 8.97888H7.79509L19.1948 2.34248ZM27.2727 28.0698C27.2727 28.8215 26.6608 29.4334 25.9091 29.4334H2.72729C1.97559 29.4334 1.36368 28.8215 1.36368 28.0698V11.7062C1.36368 10.9545 1.97559 10.3426 2.72729 10.3426H25.9091C26.6608 10.3426 27.2727 10.9545 27.2727 11.7062V15.7971H23.1818C20.9259 15.7971 19.0909 17.6321 19.0909 19.888C19.0909 22.1439 20.9259 23.9789 23.1818 23.9789H27.2727V28.0698ZM28.6364 21.9334C28.6364 22.3096 28.3308 22.6153 27.9545 22.6153H23.1818C21.6777 22.6153 20.4545 21.3922 20.4545 19.888C20.4545 18.3839 21.6776 17.1607 23.1818 17.1607H27.9545C28.3307 17.1607 28.6364 17.4663 28.6364 17.8425V21.9334Z" fill="#DFD8F3" fill-opacity="0.5"/>
<path d="M23.182 18.5247C22.4303 18.5247 21.8184 19.1366 21.8184 19.8883C21.8184 20.64 22.4303 21.2519 23.182 21.2519C23.9337 21.2519 24.5456 20.64 24.5456 19.8883C24.5457 19.1366 23.9337 18.5247 23.182 18.5247Z" fill="#DFD8F3" fill-opacity="0.5"/>
</svg>
